<?xml version="1.0" encoding="utf-8"?>
<!-- Generator: Adobe Illustrator 16.0.0, SVG Export Plug-In . SVG Version: 6.00 Build 0)  -->
<!DOCTYPE svg PUBLIC "-//W3C//DTD SVG 1.1//EN" "http://www.w3.org/Graphics/SVG/1.1/DTD/svg11.dtd">
<svg version="1.1" id="Layer_1" xmlns="http://www.w3.org/2000/svg" xmlns:xlink="http://www.w3.org/1999/xlink" x="0px" y="0px"
	 width="56.862px" height="108.497px" viewBox="0 0 56.862 108.497" enable-background="new 0 0 56.862 108.497"
	 xml:space="preserve">
<path fill-rule="evenodd" clip-rule="evenodd" fill="#FFFFFF" d="M35.589,51.054c-0.635-0.009-1.271-0.012-1.905-0.029
	c-0.288-0.006-0.253,0.184-0.253,0.363c0,1.41-0.001,2.821,0,4.233c0.002,13.927,0.005,27.857,0.006,41.786
	c0,0.678,0.068,0.565-0.573,0.568c-2.144,0.004-4.288,0.002-6.432,0.002c-3.365,0.002-6.729-0.002-10.094,0.009
	c-0.306,0-0.42-0.054-0.419-0.398c0.009-7.372,0.002-14.744,0.005-22.118c0.003-7.993,0.013-15.989,0.031-23.984
	c0-0.358-0.084-0.467-0.458-0.466c-2.808,0.018-5.616,0.003-8.424,0.018c-0.357,0.003-0.463-0.079-0.461-0.451
	c0.017-3.321,0.011-6.642,0.01-9.96c0-0.152-0.013-0.303-0.021-0.455c0-0.063,0.001-0.129,0.001-0.191c0-0.225,0-0.448,0-0.674
	c0-0.467,0.001-0.935,0.001-1.402c0.006-0.111,0.012-0.225,0.018-0.336c0.165-0.01,0.329-0.029,0.494-0.029
	c2.792,0,5.585,0.002,8.378,0.002c0.11,0,0.22-0.016,0.33-0.022c0.272-0.229,0.091-0.518,0.1-0.78
	c0.005-1.859,0.01-3.721,0.018-5.581c0.007-1.599,0.018-3.196,0.028-4.796c0.059-0.523,0.047-1.048,0.042-1.574
	c0.02-0.25,0.039-0.498,0.059-0.746c0.001-0.027,0.002-0.056,0.004-0.084c0.117-0.619,0.114-1.25,0.175-1.876
	c0.123-1.268,0.392-2.497,0.772-3.706c0.632-2.006,1.657-3.789,3.111-5.32c0.403-0.426,0.812-0.846,1.183-1.303
	c0.165-0.201,0.437-0.349,0.666-0.498c0.326-0.211,0.639-0.426,0.863-0.738c0.182-0.252,0.48-0.231,0.711-0.365
	c1.49-0.853,3.055-1.521,4.736-1.909c1.322-0.304,2.662-0.491,4.016-0.53c2.959-0.082,5.916,0.027,8.867,0.248
	c1.656,0.123,3.305,0.342,4.955,0.539c0.959,0.115,1.862,0.466,2.819,0.527c0.294,0.018,0.534,0.173,0.825,0.193
	c0.234,0.017,0.412,0.148,0.348,0.492c-0.231,1.221-0.418,2.449-0.625,3.674c-0.516,3.07-1.033,6.141-1.551,9.21
	c-0.017,0.095-0.055,0.188-0.056,0.284c-0.003,0.245-0.109,0.297-0.338,0.234c-1.452-0.404-2.932-0.674-4.425-0.861
	c-0.768-0.097-1.537-0.176-2.313-0.182c-0.221-0.036-0.44-0.038-0.661-0.002c-0.111,0.002-0.223,0.004-0.334,0.005
	c-0.027,0-0.054,0.001-0.081,0.001c-1.376,0.068-2.719,0.282-3.952,0.946c-1.413,0.76-2.188,1.938-2.319,3.534
	c-0.02,0.223-0.027,0.443-0.027,0.664c-0.002,3.291,0.006,6.584-0.009,9.874c-0.002,0.369,0.097,0.458,0.459,0.458
	c4.634-0.012,9.267-0.007,13.899-0.006c0.521,0,0.535,0.002,0.495,0.539c-0.173,2.33-0.354,4.659-0.532,6.988
	c-0.127,1.64-0.252,3.279-0.381,4.92c-0.021,0.287-0.063,0.574-0.082,0.863c-0.02,0.29-0.24,0.174-0.373,0.174
	c-2.324,0.009-4.647,0.005-6.971,0.008C38.493,51.038,37.041,51.048,35.589,51.054z"/>
</svg>
