<?xml version="1.0" encoding="utf-8"?>
<!-- Generator: Adobe Illustrator 16.0.0, SVG Export Plug-In . SVG Version: 6.00 Build 0)  -->
<!DOCTYPE svg PUBLIC "-//W3C//DTD SVG 1.1//EN" "http://www.w3.org/Graphics/SVG/1.1/DTD/svg11.dtd">
<svg version="1.1" id="Layer_1" xmlns="http://www.w3.org/2000/svg" xmlns:xlink="http://www.w3.org/1999/xlink" x="0px" y="0px"
	 width="56.862px" height="53.595px" viewBox="0 0 56.862 53.595" enable-background="new 0 0 56.862 53.595" xml:space="preserve">
<g>
	<path fill-rule="evenodd" clip-rule="evenodd" fill="#FFFFFF" d="M21.264,31.412c-1.811-2.063-2.667-4.296-1.367-6.859
		c-0.858,0-1.705,0.026-2.548-0.005c-2.329-0.087-4.5-0.698-6.393-2.096c-2.437-1.798-3.891-4.213-4.182-7.228
		c-0.329-3.416,0.426-6.565,2.706-9.234c1.086-1.271,2.477-2.137,3.979-2.825c2.166-0.993,4.462-1.525,6.827-1.57
		c4.757-0.09,9.516-0.07,14.276-0.095c0.641-0.004,1.282-0.001,1.923,0c0.116,0,0.232,0.011,0.455,0.023
		C36.744,1.656,36.641,1.733,36.53,1.8c-1.204,0.747-2.405,1.498-3.618,2.229c-0.178,0.108-0.41,0.17-0.618,0.172
		c-1.158,0.016-2.315,0.007-3.561,0.007c0.273,0.236,0.491,0.423,0.709,0.61c1.49,1.289,2.703,2.792,3.267,4.703
		c1.203,4.083,0.488,7.726-2.662,10.735c-0.712,0.68-1.517,1.26-2.247,1.922c-0.509,0.462-1.016,0.943-1.431,1.488
		c-1.049,1.375-0.935,2.949,0.345,4.112c0.91,0.826,1.943,1.517,2.887,2.307c1.002,0.837,1.999,1.686,2.938,2.592
		c3.53,3.403,3.713,8.304,1.434,12.095c-1.361,2.265-3.313,3.887-5.638,5.084c-2.211,1.138-4.575,1.771-7.037,2.091
		c-1.595,0.205-3.194,0.261-4.795,0.2c-2.651-0.101-5.237-0.542-7.659-1.692c-1.914-0.908-3.518-2.181-4.573-4.055
		c-1.59-2.822-1.232-6.324,0.914-9.068c1.488-1.904,3.469-3.116,5.677-3.992c1.99-0.788,4.067-1.24,6.187-1.495
		C18.427,31.679,19.81,31.56,21.264,31.412z M21.014,49.313c0.712-0.05,1.427-0.082,2.137-0.153c1.506-0.152,2.951-0.53,4.294-1.25
		c2.945-1.576,4.013-4.496,3.304-7.307c-0.301-1.197-1.008-2.154-1.858-3.017c-1.375-1.393-2.995-2.481-4.553-3.651
		c-0.557-0.418-1.136-0.579-1.808-0.572c-1.815,0.02-3.614,0.194-5.396,0.531c-1.756,0.332-3.417,0.91-4.922,1.905
		c-3.54,2.343-3.736,6.817-1.476,9.609c0.977,1.208,2.228,2.042,3.642,2.646C16.497,48.96,18.73,49.26,21.014,49.313z
		 M27.298,16.146c-0.135-1.026-0.212-2.022-0.406-2.996c-0.463-2.335-1.328-4.51-2.833-6.384c-1.17-1.458-2.607-2.526-4.528-2.734
		c-1.927-0.209-3.686,0.242-5.106,1.617c-1.261,1.221-1.642,2.831-1.756,4.508c-0.144,2.119,0.226,4.17,0.953,6.158
		c0.66,1.803,1.559,3.469,3.022,4.754c1.744,1.533,3.75,2.177,6.021,1.435c2.038-0.666,3.641-1.883,4.254-4.054
		C27.13,17.701,27.178,16.905,27.298,16.146z"/>
	<path fill-rule="evenodd" clip-rule="evenodd" fill="#FFFFFF" d="M43.548,33.931c0-2.213,0-4.401,0-6.626c-2.226,0-4.415,0-6.632,0
		c0-1.113,0-2.189,0-3.306c2.199,0,4.389,0,6.617,0c0-2.229,0-4.417,0-6.636c1.164,0,2.29,0,3.455,0c0,2.193,0,4.381,0,6.61
		c2.228,0,4.416,0,6.638,0c0,1.116,0,2.193,0,3.306c-2.186,0-4.374,0-6.614,0c0,2.233,0,4.431,0,6.653
		C45.845,33.931,44.729,33.931,43.548,33.931z"/>
</g>
</svg>
