<?xml version="1.0" encoding="utf-8"?>
<!-- Generator: Adobe Illustrator 16.0.0, SVG Export Plug-In . SVG Version: 6.00 Build 0)  -->
<!DOCTYPE svg PUBLIC "-//W3C//DTD SVG 1.1//EN" "http://www.w3.org/Graphics/SVG/1.1/DTD/svg11.dtd">
<svg version="1.1" id="Layer_1" xmlns="http://www.w3.org/2000/svg" xmlns:xlink="http://www.w3.org/1999/xlink" x="0px" y="0px"
	 width="379.552px" height="80.312px" viewBox="0 0 379.552 80.312" enable-background="new 0 0 379.552 80.312"
	 xml:space="preserve">
<g>
	<g>
		<path fill-rule="evenodd" clip-rule="evenodd" fill="#FF2400" d="M69.021,17.127c0-1-0.002-2.581,0.003-3.67
			c0.001-0.132-0.04-0.396-0.166-0.431c-0.424-0.112-0.853-0.246-1.283-0.148c-0.909,0.208-1.458,0.765-1.764,1.605
			c-0.396,1.09-0.375,2.181-0.127,3.3c0.118,0.535,0.334,1.02,0.718,1.423c0.684,0.714,1.534,0.793,2.449,0.622
			c0.139-0.026,0.183,0.312,0.182,0.17c-0.005-1.089-0.003-1.871-0.003-2.871C69.027,17.127,69.024,17.127,69.021,17.127z"/>
		<path fill-rule="evenodd" clip-rule="evenodd" fill="#FF2400" d="M79.052,1.884c0-0.418-0.339-0.757-0.757-0.757H49.809
			c-0.418,0-0.757,0.339-0.757,0.757V30.37c0,0.418,0.339,0.757,0.757,0.757h28.486c0.418,0,0.757-0.339,0.757-0.757V1.884z
			 M61.052,21.703c0,0.281-0.019,0.332-0.298,0.332c-0.782,0.002-1.574,0.001-2.355,0c-0.293,0-0.347-0.048-0.347-0.338
			c0-2.376,0-4.749,0-7.124c0-2.386,0-4.771,0-7.158c0-0.273-0.01,0.711,0.258,0.711c0.804,0,1.598,0,2.403,0
			c0.261,0,0.339-0.985,0.339-0.722C61.052,12.171,61.052,16.938,61.052,21.703z M71.919,21.388c-0.789,0.34-1.609,0.57-2.454,0.718
			c-0.566,0.099-1.137,0.153-1.712,0.133c-1.253-0.043-2.422-0.344-3.417-1.154c-0.825-0.673-1.328-1.551-1.612-2.564
			c-0.13-0.462-0.188-0.936-0.248-1.411c-0.048-0.382-0.051-0.766-0.021-1.141c0.109-1.359,0.542-2.601,1.445-3.651
			c0.845-0.981,1.904-1.6,3.178-1.835c0.591-0.108,1.188-0.157,1.778-0.007c0.151,0.038,0.172,0,0.171-0.137
			c-0.004-0.981-0.002-1.452-0.002-2.434c0-0.244,0.043,0.223,0.29,0.223c0.805,0,1.609,0,2.414,0c0.282,0-0.677-1-0.677-0.721
			c0,2.164,0,4.099,0,6.664l0,0c0,1.538,0,3.526,0,5.393c0,0.536,0.491,1.087,0.561,1.62C71.632,21.233,72.05,21.331,71.919,21.388z
			"/>
	</g>
	<g>
		<path fill-rule="evenodd" clip-rule="evenodd" fill="#FF2400" d="M111.047,9.017c-0.495-0.038-1.194-0.022-1.69-0.031
			c-0.029,0-0.305,0.004-0.305,0.009c0,0.05,0,0.086,0,0.124c0,1.352,0.203,2.704,0.202,4.056c0,0.301,0.105,0.602,0.099,0.903
			c-0.002,0.088,0.082,0.114,0.161,0.112c0.081-0.001,0.187,0.007,0.268,0.006c0.526-0.006,1.068,0.022,1.584-0.115
			c0.678-0.181,1.228-0.542,1.566-1.169c0.345-0.641,0.393-1.325,0.24-2.024C112.94,9.837,112.112,9.098,111.047,9.017z"/>
		<path fill-rule="evenodd" clip-rule="evenodd" fill="#FF2400" d="M129.052,1.884c0-0.418-0.339-0.757-0.757-0.757H99.809
			c-0.418,0-0.757,0.339-0.757,0.757V30.37c0,0.418,0.339,0.757,0.757,0.757h28.485c0.418,0,0.757-0.339,0.757-0.757V1.884z
			 M115.95,13.707c-0.302,0.715-0.798,1.277-1.39,1.766c-0.854,0.706-1.842,1.089-2.929,1.25c-0.683,0.101-1.573,0.104-2.261,0.124
			c-0.034,0.002-0.319,0-0.319,0c0,1.616,0,3.28,0,5.28c-1,0-1.682,0-2.731,0c-0.001,0-0.004-0.295-0.004-0.327
			c-0.001-4.934-0.001-9.986-0.003-14.922c0-0.065,0.001-0.166,0.09-0.166c1.464-0.018,2.928-0.075,4.392-0.081
			c0.853-0.002,1.694,0.094,2.507,0.367c1.683,0.568,2.677,1.729,3,3.462C116.51,11.575,116.394,12.658,115.95,13.707z
			 M125.154,19.742c-0.354,0.671-0.896,1.149-1.572,1.478c-0.596,0.29-1.231,0.433-1.888,0.49c-0.417,0.036-0.836,0.043-1.254,0.005
			c-0.48-0.044-0.947-0.153-1.406-0.298c-0.468-0.147-0.919-0.336-1.354-0.563c-0.051-0.026-0.079-0.053-0.079-0.119
			c0.003-0.779,0.002-1.557,0.002-2.335c0-0.02,0.002-0.038,0.005-0.073c0.033,0.018,0.06,0.031,0.084,0.044
			c0.846,0.453,1.738,0.77,2.691,0.896c0.378,0.05,0.756,0.033,1.126-0.069c0.587-0.163,0.833-0.606,0.668-1.194
			c-0.1-0.359-0.338-0.613-0.636-0.82c-0.348-0.242-0.744-0.378-1.138-0.518c-0.618-0.22-1.219-0.476-1.763-0.847
			c-0.437-0.298-0.807-0.658-1.021-1.154c-0.149-0.344-0.19-0.704-0.175-1.074c0.025-0.616,0.189-1.191,0.523-1.713
			c0.441-0.686,1.063-1.155,1.814-1.454c1.011-0.403,2.058-0.478,3.126-0.314c0.696,0.106,1.35,0.34,1.976,0.655
			c0.029,0.014,0.06,0.057,0.06,0.088c0.003,0.806,0.002,1.613,0.002,2.419c0,0.009-0.004,0.018-0.005,0.021
			c-0.346-0.146-0.681-0.298-1.024-0.432c-0.506-0.196-1.025-0.356-1.568-0.413c-0.392-0.041-0.78-0.02-1.146,0.157
			c-0.534,0.258-0.639,1.021-0.117,1.369c0.105,0.071,0.209,0.15,0.324,0.199c0.443,0.185,0.888,0.365,1.335,0.538
			c0.635,0.243,1.242,0.534,1.758,0.987c0.601,0.528,0.934,1.192,1.018,1.986C125.597,18.407,125.493,19.096,125.154,19.742z"/>
	</g>
	<g>
		<path fill-rule="evenodd" clip-rule="evenodd" fill="#FF2400" d="M13.106,9.127c-0.571,2-1.143,5-1.717,6c1.161,0,2.3,0,3.453,0
			c-0.574-1-1.146-4-1.718-6C13.118,9.127,13.112,9.127,13.106,9.127z"/>
		<path fill-rule="evenodd" clip-rule="evenodd" fill="#FF2400" d="M30.052,0.884c0-0.418-0.339-0.757-0.757-0.757H0.809
			c-0.418,0-0.757,0.339-0.757,0.757V29.37c0,0.418,0.339,0.757,0.757,0.757h28.486c0.418,0,0.757-0.339,0.757-0.757V0.884z
			 M19.552,21.127c-0.987,0-1.973-0.028-2.96-0.026c-0.075,0-0.11-0.031-0.131-0.11c-0.355-1.353-0.715-2.712-1.07-4.065
			c-0.025-0.098-0.063-0.13-0.165-0.13c-1.412,0.004-2.825,0.003-4.238,0c-0.093,0-0.124,0.033-0.146,0.114
			c-0.312,1.188-0.628,2.376-0.942,3.564c-0.048,0.177-0.095,0.352-0.139,0.529c-0.012,0.046-0.03,0.073-0.085,0.073
			c-1.039-0.002-2.076-0.001-3.115-0.001c-0.012,0-0.024-0.003-0.049-0.006c0.033-0.098,0.062-0.191,0.095-0.285
			c0.408-1.182,0.818-2.363,1.227-3.545c0.488-1.411,0.977-2.823,1.465-4.234c0.587-1.696,1.173-3.394,1.759-5.09
			c0.125-0.363,0.252-0.535,0.375-0.898c0.021-0.06,0.049,0.111,0.11,0.111c1.051,0,2.102,0,3.152,0c0.07,0,0.092-0.159,0.112-0.102
			c0.422,1.226,0.846,2.356,1.269,3.581c0.496,1.435,0.991,2.823,1.487,4.257c0.494,1.426,0.989,2.828,1.483,4.252
			c0.217,0.627,0.433,1.271,0.648,1.897c0.009,0.025,0.014,0.114,0.025,0.114C19.654,21.127,19.603,21.127,19.552,21.127z
			 M23.052,22.127c-1,0-2,0-3,0c0-4,0-7,0-11c1,0,2,0,3,0C23.052,15.127,23.052,18.127,23.052,22.127z M21.938,9.154
			c-0.821-0.006-1.498-0.697-1.495-1.529c0.002-0.847,0.683-1.52,1.531-1.517c0.839,0,1.523,0.708,1.512,1.54
			C23.474,8.481,22.787,9.158,21.938,9.154z"/>
	</g>
	<g>
		<path fill-rule="evenodd" clip-rule="evenodd" fill="#FF2400" d="M279.552,4.515c0,7.002,0,14.004,0,21.007
			c-0.01,0.042-0.025,0.084-0.03,0.126c-0.238,2.464-2.313,4.351-4.786,4.351c-6.752,0-13.504,0-20.256,0
			c-2.119,0-4.021-1.434-4.598-3.474c-0.09-0.317-0.134-0.646-0.199-0.971c0-7.024,0-14.049,0-21.074
			c0.023-0.147,0.047-0.293,0.068-0.439c0.268-1.819,1.736-3.44,3.521-3.873c0.293-0.071,0.593-0.113,0.891-0.168
			c6.959,0,13.917,0,20.875,0c0.048,0.013,0.096,0.029,0.145,0.033c2.028,0.175,3.772,1.684,4.227,3.668
			C279.472,3.97,279.505,4.243,279.552,4.515z M269.56,14.351c0.045-0.019,0.085-0.035,0.125-0.053
			c1.174-0.505,1.949-1.354,2.222-2.619c0.192-0.891,0.141-1.781-0.106-2.657c-0.271-0.963-0.839-1.705-1.693-2.228
			c-0.498-0.305-1.04-0.507-1.604-0.657c-1.162-0.309-2.35-0.407-3.547-0.415c-2.482-0.012-4.965-0.007-7.448-0.007
			c-0.06,0-0.117,0.006-0.179,0.009c0,6.202,0,12.387,0,18.589c0.09,0,0.166,0,0.242,0c2.279,0,4.557,0.008,6.835-0.003
			c0.879-0.005,1.759-0.026,2.636-0.084c1.075-0.07,2.121-0.3,3.102-0.766c1.141-0.542,1.965-1.38,2.358-2.599
			c0.319-0.987,0.368-1.998,0.177-3.014c-0.266-1.414-1.005-2.496-2.309-3.155C270.111,14.562,269.835,14.466,269.56,14.351z"/>
		<path fill-rule="evenodd" clip-rule="evenodd" fill="#FF2400" d="M262.174,21.035c0-1.62,0-3.222,0-4.834
			c0.047-0.006,0.09-0.016,0.132-0.016c1.017,0.003,2.034,0.002,3.051,0.013c0.417,0.005,0.825,0.082,1.215,0.233
			c0.71,0.273,1.152,0.777,1.299,1.529c0.098,0.497,0.092,0.992-0.046,1.478c-0.249,0.874-0.884,1.318-1.731,1.496
			c-0.308,0.064-0.625,0.097-0.938,0.102c-0.945,0.014-1.892,0.007-2.837,0.007C262.275,21.042,262.232,21.036,262.174,21.035z"/>
		<path fill-rule="evenodd" clip-rule="evenodd" fill="#FF2400" d="M262.181,9c0.05-0.003,0.088-0.008,0.127-0.008
			c0.918,0.001,1.836-0.001,2.754,0.006c0.39,0.003,0.77,0.078,1.124,0.249c0.706,0.338,1.057,1.039,0.97,1.922
			c-0.099,1.006-0.684,1.583-1.73,1.705c-0.164,0.02-0.329,0.034-0.494,0.035c-0.912,0.002-1.825,0.001-2.75,0.001
			C262.181,11.606,262.181,10.311,262.181,9z"/>
	</g>
	<path fill-rule="evenodd" clip-rule="evenodd" fill="#FF2400" d="M205.937,18.066c-0.143,0.725-0.283,1.426-0.417,2.13
		c-0.075,0.399-0.14,0.31,0.248,0.459c2.241,0.859,4.484,1.716,6.729,2.567c0.09,0.033,0.211,0.039,0.303,0.01
		c2.668-0.878,5.333-1.761,8-2.642c0.106-0.035,0.162-0.083,0.186-0.204c0.272-1.396,0.554-2.792,0.831-4.187
		c0.084-0.417,0.167-0.835,0.249-1.253c0.011-0.058,0.015-0.118,0.025-0.202c-6.843,0-13.666,0-20.524,0
		c0.029-0.177,0.049-0.328,0.079-0.477c0.29-1.468,0.582-2.935,0.869-4.402c0.021-0.106,0.064-0.147,0.168-0.138
		c0.049,0.005,0.1,0.001,0.15,0.001c6.674,0,13.348,0,20.021,0c0.26,0,0.258,0,0.309-0.253c0.188-0.957,0.374-1.913,0.562-2.869
		c0.009-0.049,0.011-0.099,0.017-0.167c-6.844,0-13.672,0-20.53,0c0.044-0.239,0.081-0.457,0.124-0.673
		c0.278-1.39,0.559-2.778,0.835-4.168c0.024-0.127,0.073-0.173,0.208-0.173c8.399,0.004,16.799,0.004,25.2,0.004
		c0.054,0,0.108,0,0.186,0c-0.054,0.284-0.102,0.541-0.152,0.797c-0.357,1.797-0.713,3.594-1.071,5.39
		c-0.422,2.115-0.847,4.23-1.27,6.344c-0.387,1.944-0.773,3.89-1.16,5.835c-0.271,1.368-0.545,2.737-0.813,4.105
		c-0.025,0.124-0.083,0.184-0.205,0.224c-4.455,1.477-8.908,2.958-13.363,4.433c-0.09,0.03-0.212,0.017-0.303-0.018
		c-3.836-1.463-7.671-2.932-11.506-4.395c-0.145-0.056-0.177-0.115-0.146-0.271c0.381-1.889,0.754-3.779,1.124-5.671
		c0.022-0.116,0.077-0.154,0.193-0.154c1.563,0.002,3.126,0.002,4.688,0.002C205.825,18.05,205.868,18.059,205.937,18.066z"/>
	<path fill-rule="evenodd" clip-rule="evenodd" fill="#FF2400" d="M151.341,0c8.806,0,17.614,0,26.42,0
		c-0.069,0.885-0.132,1.772-0.209,2.658c-0.105,1.225-0.222,2.45-0.332,3.676c-0.086,0.963-0.166,1.926-0.252,2.89
		c-0.111,1.245-0.225,2.489-0.336,3.734c-0.085,0.954-0.168,1.907-0.254,2.86c-0.109,1.217-0.223,2.432-0.331,3.648
		c-0.106,1.186-0.205,2.373-0.311,3.561c-0.11,1.226-0.233,2.45-0.328,3.678c-0.02,0.244-0.086,0.351-0.329,0.419
		c-3.432,0.944-6.861,1.902-10.292,2.845c-0.166,0.047-0.368,0.038-0.536-0.008c-1.807-0.493-3.609-0.999-5.414-1.499
		c-1.616-0.45-3.233-0.897-4.847-1.354c-0.107-0.031-0.25-0.137-0.271-0.231c-0.056-0.245-0.052-0.503-0.074-0.757
		c-0.104-1.197-0.208-2.394-0.315-3.59c-0.109-1.226-0.221-2.451-0.331-3.677c-0.088-0.982-0.172-1.966-0.261-2.948
		c-0.108-1.207-0.218-2.41-0.326-3.618c-0.088-0.982-0.172-1.966-0.259-2.949c-0.109-1.215-0.218-2.432-0.328-3.647
		c-0.092-1.012-0.188-2.023-0.274-3.034C151.475,1.772,151.41,0.885,151.341,0z M157.272,17.212c0,0.154-0.01,0.289,0.001,0.421
		c0.132,1.499,0.272,2.997,0.396,4.497c0.02,0.24,0.098,0.357,0.339,0.422c2.101,0.571,4.197,1.158,6.296,1.73
		c0.151,0.042,0.334,0.047,0.484,0.006c2.108-0.574,4.211-1.159,6.318-1.739c0.178-0.048,0.28-0.121,0.297-0.327
		c0.081-1.002,0.18-2.002,0.269-3.002c0.085-0.963,0.165-1.925,0.25-2.887c0.113-1.292,0.222-2.586,0.348-3.877
		c0.023-0.234-0.071-0.265-0.259-0.262c-0.431,0.006-0.861,0.001-1.292,0.001c-3.394,0.004-6.789,0.006-10.183,0.018
		c-0.269,0-0.375-0.062-0.387-0.353c-0.024-0.565-0.1-1.128-0.148-1.693c-0.036-0.421-0.062-0.844-0.093-1.272
		c0.105-0.009,0.153-0.018,0.201-0.018c1.478,0,2.954,0.002,4.432,0.003c2.602,0.001,5.204,0.001,7.806,0.008
		c0.212,0,0.258-0.087,0.271-0.278c0.04-0.545,0.105-1.087,0.153-1.631c0.043-0.482,0.076-0.965,0.115-1.458
		c-5.574,0-11.115,0-16.69,0c0.3,3.362,0.598,6.695,0.897,10.055c0.173,0.007,0.328,0.021,0.48,0.021
		c3.541,0.008,7.083,0.015,10.624,0.021c0.039,0,0.078,0.003,0.118,0c0.194-0.014,0.264,0.033,0.24,0.266
		c-0.124,1.205-0.23,2.409-0.321,3.616c-0.018,0.251-0.1,0.358-0.339,0.42c-1.067,0.275-2.128,0.57-3.194,0.849
		c-0.123,0.032-0.27,0.031-0.393,0c-0.898-0.232-1.793-0.475-2.688-0.717c-0.773-0.21-0.764-0.212-0.824-1.035
		c-0.043-0.6-0.112-1.2-0.17-1.805C159.492,17.212,158.392,17.212,157.272,17.212z"/>
	<path fill="#FF2400" d="M375.378,16.669c-1.049,0.006-1.957,0.258-2.72,0.633c-0.281-0.557-0.563-1.043-0.608-1.406
		c-0.054-0.422-0.118-0.68-0.054-1.184c0.064-0.504,0.357-1.219,0.357-1.277c-0.006-0.053-0.064-0.311-0.668-0.317
		c-0.604-0.006-1.125,0.118-1.184,0.276c-0.059,0.158-0.176,0.522-0.252,0.897c-0.105,0.551-1.207,2.502-1.834,3.528
		c-0.205-0.398-0.381-0.75-0.416-1.031c-0.054-0.423-0.118-0.681-0.054-1.185s0.357-1.219,0.357-1.277
		c-0.006-0.053-0.063-0.311-0.668-0.316c-0.604-0.005-1.125,0.117-1.183,0.275c-0.059,0.158-0.123,0.533-0.253,0.896
		c-0.122,0.363-1.588,3.622-1.969,4.471c-0.193,0.433-0.362,0.779-0.486,1.014c-0.123,0.235-0.006,0.018-0.018,0.041
		c-0.105,0.2-0.164,0.311-0.164,0.311v0.006c-0.082,0.146-0.17,0.286-0.211,0.286c-0.029,0-0.088-0.392,0.012-0.93
		c0.217-1.132,0.744-2.896,0.738-2.96c0-0.03,0.1-0.34-0.34-0.499c-0.428-0.158-0.58,0.106-0.615,0.106s-0.064,0.093-0.064,0.093
		s0.475-1.987-0.908-1.987c-0.867,0-2.063,0.944-2.654,1.805c-0.375,0.205-1.172,0.639-2.016,1.103
		c-0.322,0.175-0.657,0.362-0.974,0.532l-0.063-0.069c-1.676-1.788-4.776-3.054-4.647-5.456c0.047-0.873,0.352-3.176,5.954-5.966
		c4.588-2.285,8.262-1.658,8.9-0.264c0.909,1.993-1.963,5.696-6.732,6.229c-1.816,0.204-2.771-0.498-3.012-0.761
		c-0.252-0.277-0.287-0.288-0.381-0.236c-0.152,0.083-0.06,0.329,0,0.475c0.141,0.369,0.727,1.025,1.723,1.353
		c0.873,0.287,3.006,0.446,5.584-0.551c2.89-1.118,5.146-4.225,4.482-6.82c-0.674-2.643-5.057-3.51-9.199-2.04
		c-2.467,0.879-5.14,2.25-7.062,4.05c-2.285,2.132-2.648,3.996-2.496,4.77c0.533,2.76,4.337,4.559,5.86,5.889
		c-0.077,0.041-0.146,0.083-0.211,0.118c-0.762,0.375-3.663,1.893-4.39,3.499c-0.82,1.815,0.129,3.123,0.762,3.298
		c1.958,0.545,3.962-0.434,5.046-2.044c1.078-1.612,0.949-3.703,0.451-4.659l-0.018-0.034l0.598-0.353
		c0.387-0.229,0.767-0.439,1.102-0.621c-0.188,0.511-0.322,1.113-0.393,1.992c-0.082,1.032,0.34,2.368,0.896,2.895
		c0.246,0.229,0.539,0.235,0.721,0.235c0.645,0,0.938-0.535,1.26-1.173c0.398-0.779,0.75-1.682,0.75-1.682s-0.439,2.444,0.762,2.444
		c0.439,0,0.879-0.568,1.078-0.862v0.007c0,0,0.012-0.018,0.035-0.059c0.024-0.036,0.048-0.074,0.07-0.111v-0.013
		c0.176-0.304,0.568-1.001,1.154-2.156c0.756-1.488,1.483-3.352,1.483-3.352s0.07,0.458,0.286,1.207
		c0.13,0.445,0.41,0.932,0.628,1.407c-0.176,0.246-0.281,0.386-0.281,0.386l0.006,0.006c-0.141,0.188-0.3,0.388-0.463,0.587
		c-0.599,0.715-1.313,1.529-1.407,1.763c-0.111,0.275-0.088,0.481,0.129,0.645c0.158,0.117,0.44,0.14,0.738,0.117
		c0.54-0.035,0.914-0.17,1.103-0.252c0.293-0.105,0.627-0.264,0.949-0.498c0.586-0.434,0.943-1.05,0.908-1.87
		c-0.019-0.452-0.164-0.896-0.346-1.318c0.053-0.076,0.105-0.152,0.157-0.234c0.927-1.354,1.641-2.841,1.641-2.841
		s0.07,0.458,0.288,1.207c0.111,0.381,0.334,0.798,0.532,1.207c-0.866,0.709-1.412,1.529-1.599,2.069
		c-0.347,0.996-0.076,1.447,0.433,1.553c0.229,0.047,0.558-0.06,0.804-0.164c0.305-0.101,0.674-0.27,1.015-0.521
		c0.585-0.434,1.147-1.038,1.118-1.852c-0.018-0.376-0.117-0.745-0.252-1.097c0.738-0.304,1.693-0.48,2.907-0.334
		c2.607,0.305,3.123,1.935,3.023,2.615c-0.1,0.68-0.645,1.055-0.826,1.172c-0.182,0.111-0.24,0.151-0.223,0.234
		c0.023,0.123,0.105,0.117,0.264,0.093c0.217-0.035,1.371-0.556,1.418-1.81C379.62,18.409,378.091,16.651,375.378,16.669
		L375.378,16.669z M355.266,23.449c-0.861,0.944-2.074,1.301-2.591,0.998c-0.556-0.324-0.339-1.712,0.722-2.714
		c0.645-0.609,1.482-1.172,2.034-1.518c0.121-0.076,0.31-0.188,0.533-0.322c0.034-0.023,0.059-0.035,0.059-0.035
		c0.041-0.023,0.088-0.053,0.134-0.083C356.55,21.205,356.175,22.459,355.266,23.449L355.266,23.449z M361.565,19.166
		c-0.299,0.732-0.932,2.613-1.313,2.507c-0.328-0.087-0.527-1.512-0.064-2.918c0.234-0.709,0.732-1.552,1.025-1.881
		c0.475-0.527,0.99-0.703,1.119-0.486C362.485,16.669,361.753,18.708,361.565,19.166z M366.763,21.65
		c-0.129,0.064-0.246,0.111-0.298,0.076c-0.041-0.023,0.052-0.111,0.052-0.111s0.651-0.697,0.908-1.019
		c0.146-0.187,0.322-0.405,0.511-0.651v0.07C367.936,20.858,367.127,21.421,366.763,21.65L366.763,21.65z M370.771,20.735
		c-0.095-0.07-0.082-0.286,0.234-0.966c0.123-0.27,0.404-0.721,0.891-1.149c0.059,0.176,0.094,0.346,0.088,0.505
		C371.979,20.179,371.229,20.571,370.771,20.735z"/>
	<g>
		<path fill-rule="evenodd" clip-rule="evenodd" fill="#FF2400" d="M15,57.027c-8.285,0-15,3.648-15,8.148s6.715,8.148,15,8.148
			c8.284,0,15-3.648,15-8.148S23.284,57.027,15,57.027z M11.123,66.388c-0.542,0.417-1.171,0.597-1.839,0.628
			c-0.634,0.03-1.27,0.026-1.903,0.023c-0.17-0.001-0.229,0.055-0.257,0.218c-0.1,0.571-0.212,1.14-0.331,1.706
			c-0.015,0.072-0.096,0.183-0.148,0.185c-0.523,0.014-1.047,0.008-1.612,0.008c0.129-0.669,0.25-1.299,0.372-1.928
			c0.373-1.923,0.748-3.845,1.113-5.769c0.038-0.196,0.105-0.265,0.315-0.263c1.01,0.013,2.022-0.01,3.032,0.013
			c0.411,0.01,0.832,0.059,1.227,0.17c0.902,0.254,1.439,0.941,1.475,1.875C12.615,64.535,12.153,65.596,11.123,66.388z
			 M17.996,67.047c-0.499-0.009-0.999-0.004-1.534-0.004c0.082-0.428,0.158-0.824,0.233-1.222c0.157-0.823,0.324-1.645,0.466-2.47
			c0.097-0.572-0.101-0.816-0.677-0.846c-0.5-0.025-1.002-0.009-1.503-0.021c-0.156-0.004-0.173,0.083-0.196,0.201
			c-0.261,1.36-0.526,3.267-0.791,4.628c-0.016,0.082-0.038,0.813-0.061,0.813c-0.571,0-1.117,0-1.706,0c0.514-3,1.025-5,1.538-8
			c0.572,0,1.125,0,1.712,0c-0.135,0-0.264,0.866-0.4,1.576c0.096,0.006,0.177-0.246,0.259-0.244
			c0.642,0.012,1.285-0.118,1.926-0.088c0.255,0.012,0.513,0.008,0.757,0.087c0.645,0.204,0.975,0.607,0.951,1.282
			c-0.015,0.42-0.1,0.823-0.176,1.239c-0.179,0.961-0.374,1.912-0.553,2.875C18.212,67.011,18.15,67.049,17.996,67.047z
			 M24.974,66.081c-0.614,0.603-1.355,0.895-2.197,0.935c-0.633,0.031-1.27,0.026-1.904,0.023c-0.168-0.001-0.227,0.052-0.256,0.217
			c-0.099,0.572-0.217,1.14-0.327,1.709c-0.02,0.102-0.024,0.196-0.175,0.194c-0.516-0.008-1.033-0.003-1.591-0.003
			c0.517-2.669,1.027-5.305,1.542-7.955c0.255,0,0.49-0.001,0.724,0.002c1.065,0.011,2.131,0.011,3.196,0.047
			c0.274,0.007,0.559,0.096,0.815,0.202c0.866,0.359,1.266,1.048,1.264,1.963C26.062,64.443,25.724,65.345,24.974,66.081z"/>
		<path fill-rule="evenodd" clip-rule="evenodd" fill="#FF2400" d="M23.322,62.512c-0.543-0.056-1.094-0.042-1.641-0.045
			c-0.055,0-0.145,0.101-0.159,0.167c-0.118,0.55-0.222,1.104-0.329,1.657c-0.095,0.489-0.188,0.979-0.285,1.479
			c0.491,0,0.96,0.025,1.425-0.005c1.091-0.071,1.606-0.525,1.846-1.595c0.039-0.175,0.065-0.354,0.074-0.534
			C24.289,62.934,24.021,62.584,23.322,62.512z"/>
		<path fill-rule="evenodd" clip-rule="evenodd" fill="#FF2400" d="M9.844,62.514c-0.55-0.057-1.108-0.043-1.663-0.047
			c-0.05,0-0.135,0.076-0.146,0.129c-0.209,1.05-0.411,2.101-0.621,3.188c0.447,0,0.861,0.019,1.273-0.004
			c1.297-0.067,1.856-0.586,2.051-1.87c0.015-0.101,0.021-0.202,0.024-0.304C10.783,62.926,10.522,62.584,9.844,62.514z"/>
	</g>
	<path fill-rule="evenodd" clip-rule="evenodd" fill="#FF2400" d="M379.453,63.602c-0.075-0.697-0.206-1.385-0.383-2.064
		c-0.259-1.002-0.622-1.966-1.083-2.892c-0.145-0.288-0.288-0.574-0.461-0.845c-0.063-0.109-0.125-0.22-0.191-0.328
		c-0.346-0.559-0.725-1.092-1.139-1.601c-0.475-0.581-0.979-1.133-1.543-1.628c-0.238-0.209-0.474-0.418-0.719-0.616
		c-0.278-0.226-0.564-0.44-0.858-0.646c-0.68-0.474-1.397-0.884-2.146-1.242c-0.447-0.214-0.906-0.402-1.373-0.568
		c-1.037-0.366-2.1-0.619-3.192-0.747c-0.36-0.043-0.722-0.075-1.085-0.096c-0.374-0.021-0.748-0.022-1.123-0.013
		c-0.629,0.018-1.254,0.07-1.875,0.164c-1.176,0.18-2.314,0.496-3.416,0.947c-0.748,0.307-1.464,0.678-2.156,1.094
		c-0.369,0.222-0.722,0.469-1.067,0.726c-0.488,0.362-0.954,0.75-1.395,1.167c-0.356,0.338-0.694,0.69-1.017,1.06
		c-0.373,0.43-0.723,0.878-1.045,1.347c-0.519,0.754-0.966,1.547-1.339,2.383c-0.321,0.722-0.587,1.463-0.79,2.228
		c-0.278,1.042-0.443,2.103-0.49,3.179c-0.01,0.239-0.024,0.479-0.014,0.719c-0.005,0.317,0.001,0.634,0.027,0.951
		c0.021,0.254,0.04,0.509,0.068,0.763c0.036,0.33,0.088,0.659,0.146,0.985c0.316,1.723,0.917,3.34,1.8,4.85
		c0.451,0.771,0.969,1.497,1.554,2.175c0.516,0.597,1.068,1.153,1.668,1.665c1.206,1.029,2.538,1.855,4.005,2.461
		c1.136,0.469,2.312,0.795,3.528,0.973c0.907,0.131,1.818,0.186,2.736,0.15c0.561-0.021,1.117-0.071,1.672-0.152
		c0.862-0.127,1.706-0.329,2.533-0.605c1.721-0.576,3.286-1.438,4.696-2.582c0.926-0.751,1.752-1.598,2.474-2.546
		c0.643-0.841,1.203-1.731,1.641-2.698c0.138-0.302,0.277-0.6,0.4-0.906c0.647-1.625,0.986-3.313,1.042-5.059
		C379.567,65.033,379.531,64.316,379.453,63.602z M358.626,77.412c-0.023,0.026-0.046-0.005-0.064-0.015
		c-0.809-0.409-1.574-0.885-2.289-1.442c-0.469-0.366-0.914-0.761-1.331-1.186c-0.931-0.946-1.708-2.006-2.327-3.181
		c-0.648-1.229-1.094-2.527-1.34-3.896c-0.108-0.607-0.171-1.22-0.197-1.837c-0.021-0.533-0.017-1.065,0.027-1.595
		c0.115-1.375,0.42-2.707,0.94-3.987c0.058-0.142,0.116-0.283,0.175-0.426c0.068,0.056,0.063,0.144,0.09,0.215
		c0.178,0.466,0.349,0.934,0.52,1.401c0.418,1.144,0.836,2.287,1.253,3.432c0.009,0.021,0.019,0.041,0.028,0.062
		c0.111,0.31,0.221,0.619,0.333,0.929c0.647,1.776,1.296,3.552,1.944,5.328c0.262,0.719,0.524,1.436,0.786,2.154
		c0.317,0.869,0.636,1.738,0.951,2.606c0.137,0.375,0.271,0.75,0.405,1.126c0.029,0.079,0.059,0.16,0.089,0.24
		C358.628,77.365,358.647,77.391,358.626,77.412z M369.002,78.029c-0.019,0.033-0.088,0.039-0.136,0.056
		c-0.788,0.269-1.595,0.458-2.419,0.576c-0.773,0.11-1.552,0.154-2.333,0.129c-1.125-0.036-2.229-0.215-3.31-0.522
		c-0.033-0.011-0.073-0.01-0.05-0.077c0.252-0.714,0.498-1.429,0.744-2.144c0.58-1.682,1.157-3.363,1.736-5.045
		c0.48-1.4,0.964-2.799,1.445-4.197c0.031-0.092,0.058-0.186,0.11-0.297c0.111,0.311,0.214,0.6,0.318,0.889
		c0.448,1.223,0.897,2.444,1.343,3.668c0.193,0.529,0.377,1.063,0.57,1.592c0.225,0.62,0.455,1.238,0.682,1.857
		c0.254,0.688,0.506,1.376,0.76,2.063c0.154,0.423,0.309,0.844,0.463,1.265c0.007,0.018,0.016,0.031,0.02,0.049
		C368.962,77.94,369.027,77.986,369.002,78.029z M371.277,73.441c-0.028,0-0.024-0.029-0.031-0.051
		c-0.197-0.592-0.393-1.183-0.591-1.773c-0.559-1.662-1.116-3.324-1.675-4.985c-0.112-0.333-0.219-0.669-0.338-1
		c-0.149-0.418-0.284-0.84-0.427-1.261c-0.529-1.581-1.057-3.163-1.59-4.743c-0.064-0.188-0.128-0.376-0.197-0.562
		c-0.021-0.058-0.009-0.077,0.055-0.08c0.495-0.02,0.988-0.068,1.48-0.121c0.285-0.031,0.498-0.264,0.492-0.541
		c-0.002-0.098-0.018-0.196-0.065-0.285c-0.009-0.018-0.015-0.037-0.025-0.055c-0.12-0.182-0.296-0.249-0.509-0.234
		c-0.354,0.023-0.707,0.048-1.063,0.07c-0.699,0.047-1.398,0.08-2.1,0.097c-0.613,0.015-1.229-0.008-1.841-0.04
		c-0.419-0.022-0.838-0.046-1.257-0.07c-0.314-0.018-0.629-0.048-0.943-0.055c-0.294-0.007-0.507,0.219-0.524,0.549
		c-0.015,0.287,0.154,0.513,0.429,0.551c0.462,0.064,0.928,0.105,1.394,0.131c0.084,0.004,0.116,0.037,0.13,0.107
		c0.002,0.014,0.001,0.029,0.006,0.041c0.115,0.309,0.234,0.616,0.348,0.926c0.564,1.547,1.129,3.094,1.693,4.641
		c0.014,0.039,0.006,0.075-0.007,0.112c-0.101,0.303-0.199,0.606-0.299,0.909c-0.179,0.535-0.358,1.07-0.536,1.605
		c-0.691,2.07-1.38,4.139-2.07,6.209c-0.004,0.01-0.011,0.019-0.023,0.039c-0.083-0.246-0.163-0.48-0.242-0.717
		c-0.639-1.898-1.277-3.797-1.914-5.696c-0.501-1.493-1.002-2.986-1.503-4.479c-0.099-0.293-0.19-0.59-0.298-0.881
		c-0.194-0.525-0.353-1.064-0.539-1.594c-0.133-0.38-0.258-0.764-0.389-1.144c-0.021-0.063-0.01-0.073,0.051-0.075
		c0.494-0.02,0.988-0.068,1.48-0.121c0.362-0.04,0.581-0.381,0.471-0.727c-0.01-0.027-0.021-0.055-0.03-0.084l0,0
		c-0.087-0.194-0.251-0.291-0.45-0.299c-0.22-0.008-0.439,0.018-0.657,0.043c-0.094,0.012-0.19,0.015-0.283,0.018
		c-0.246,0.005-0.491,0.027-0.735,0.039c-0.245,0.012-0.49,0.021-0.735,0.033c-0.545,0.025-1.089,0.035-1.634,0.029
		c-0.144-0.002-0.286-0.009-0.43-0.015c-0.021-0.001-0.056,0.015-0.053-0.031c0.021-0.054,0.067-0.089,0.099-0.134
		c0.512-0.754,1.094-1.446,1.746-2.081c0.39-0.38,0.8-0.736,1.233-1.065c1.35-1.028,2.84-1.779,4.471-2.246
		c1.069-0.307,2.16-0.472,3.27-0.509c0.529-0.017,1.059-0.001,1.587,0.044c0.618,0.054,1.228,0.148,1.834,0.284
		c0.349,0.077,0.69,0.177,1.034,0.272c0.43,0.144,0.855,0.295,1.272,0.475c1.264,0.543,2.419,1.26,3.464,2.156
		c0.108,0.093,0.213,0.19,0.319,0.287c-0.005,0.003-0.011,0.007-0.015,0.01c-0.309-0.035-0.604,0.021-0.894,0.126
		c-0.247,0.089-0.465,0.226-0.667,0.394c-0.411,0.343-0.654,0.787-0.783,1.299c-0.063,0.252-0.067,0.513-0.053,0.771
		c0.018,0.336,0.103,0.655,0.219,0.968c0.23,0.61,0.579,1.157,0.923,1.706c0.415,0.663,0.774,1.352,1.007,2.103
		c0.15,0.489,0.238,0.988,0.271,1.499c0.018,0.293,0.009,0.586-0.003,0.878c-0.107,1.236-0.459,2.413-0.893,3.566
		c-0.153,0.406-0.268,0.823-0.394,1.239c-0.198,0.645-0.389,1.291-0.583,1.938c-0.154,0.514-0.311,1.028-0.467,1.543
		C371.295,73.412,371.306,73.441,371.277,73.441z M377.981,66.456c-0.047,0.55-0.126,1.095-0.238,1.636
		c-0.166,0.802-0.406,1.581-0.719,2.338c-0.33,0.797-0.729,1.558-1.205,2.277c-0.355,0.537-0.745,1.048-1.172,1.532
		c-0.299,0.335-0.611,0.656-0.938,0.961c-0.62,0.577-1.293,1.088-2.011,1.54c-0.112,0.07-0.226,0.14-0.346,0.215
		c-0.01-0.07,0.02-0.119,0.037-0.17c0.283-0.821,0.57-1.641,0.854-2.463c0.837-2.42,1.673-4.839,2.511-7.259
		c0.228-0.659,0.449-1.321,0.688-1.976c0.172-0.471,0.354-0.938,0.498-1.417c0.215-0.709,0.374-1.431,0.463-2.167
		c0.068-0.57,0.09-1.145,0.064-1.72c-0.01-0.22,0.304-0.438,0.272-0.657c-0.011-0.063,0.312-0.129,0.312-0.191
		c0-0.018,0-0.033,0-0.068c0,0.273-0.048,0.536,0.075,0.803c0.497,1.075,0.678,2.197,0.878,3.363
		c0.065,0.374,0.029,0.75,0.061,1.129c0.002,0.033-0.031,0.067-0.026,0.102c0.01,0.238,0.005,0.477,0.009,0.716
		C378.06,65.472,378.024,65.964,377.981,66.456z"/>
	<path fill-rule="evenodd" clip-rule="evenodd" fill="#FF2400" d="M99.054,80.176c0-9.908,0.001-19.818-0.006-29.728
		c0-0.223,0.051-0.272,0.273-0.272c9.82,0.006,19.641,0.006,29.46,0c0.223,0,0.273,0.05,0.273,0.272
		c-0.006,9.909-0.006,19.819-0.006,29.728C119.05,80.176,109.052,80.176,99.054,80.176z M121.986,77.799
		c0.479,0.02,0.951-0.024,1.416-0.128c1.216-0.269,2.259-0.812,2.854-1.965c0.798-1.548,0.662-4.05-1.52-5.358
		c-0.894-0.537-1.856-0.922-2.8-1.35c-0.386-0.174-0.776-0.351-1.079-0.664c-0.64-0.663-0.38-1.75,0.501-2.009
		c0.646-0.188,1.252-0.078,1.759,0.404c0.182,0.173,0.331,0.368,0.452,0.585c0.065,0.115,0.12,0.126,0.229,0.055
		c0.638-0.414,1.278-0.826,1.921-1.234c0.118-0.075,0.136-0.139,0.061-0.26c-0.412-0.668-0.918-1.244-1.626-1.605
		c-1.095-0.562-2.257-0.622-3.437-0.381c-1.14,0.234-2.04,0.836-2.594,1.888c-0.731,1.392-0.68,3.884,1.518,5.231
		c0.711,0.437,1.479,0.748,2.238,1.083c0.488,0.215,0.99,0.409,1.415,0.739c0.856,0.668,0.714,1.808-0.28,2.252
		c-0.554,0.247-1.135,0.252-1.716,0.145c-0.887-0.162-1.5-0.713-1.981-1.439c-0.079-0.118-0.123-0.231-0.31-0.119
		c-0.651,0.393-1.311,0.772-1.975,1.146c-0.158,0.089-0.145,0.165-0.066,0.299c0.221,0.378,0.47,0.733,0.775,1.046
		C118.907,77.354,120.362,77.796,121.986,77.799z M115.37,69.037c0-1.595-0.007-3.189,0.007-4.782
		c0.003-0.281-0.084-0.348-0.35-0.341c-0.723,0.017-1.446,0.02-2.167-0.001c-0.267-0.008-0.325,0.071-0.324,0.33
		c0.01,3.048,0.008,6.098,0.003,9.146c0,0.257-0.02,0.517-0.063,0.768c-0.082,0.475-0.3,0.861-0.788,1.027
		c-0.752,0.254-1.473,0.039-1.962-0.592c-0.145-0.185-0.274-0.387-0.387-0.595c-0.081-0.146-0.144-0.168-0.291-0.077
		c-0.638,0.398-1.282,0.784-1.929,1.166c-0.159,0.094-0.194,0.178-0.102,0.35c0.448,0.82,1.052,1.485,1.905,1.889
		c1.288,0.609,2.623,0.634,3.96,0.221c1.112-0.345,1.848-1.107,2.222-2.215c0.179-0.529,0.261-1.076,0.264-1.632
		C115.375,72.146,115.37,70.59,115.37,69.037z"/>
	<g>
		<path fill-rule="evenodd" clip-rule="evenodd" fill="#FF2400" d="M152.831,55.408c-0.067,0.352-0.14,0.704-0.202,1.059
			c-0.501,2.874-0.45,5.711,0.566,8.486c0.786,2.148,2.058,3.975,3.712,5.535c1.88,1.774,4.013,3.182,6.402,4.176
			c1.358,0.563,2.789,0.851,4.254,0.984c2.397,0.219,4.723-0.061,6.968-0.943c1.5-0.588,2.833-1.438,3.988-2.566
			c0.039-0.039,0.079-0.076,0.121-0.111c0.01-0.009,0.031-0.005,0.068-0.01c-0.422,0.88-0.937,1.686-1.561,2.416
			c-2.226,2.608-5.024,4.271-8.422,4.723c-6.652,0.882-12.004-1.466-16.054-6.781c-1.467-1.924-2.426-4.101-2.867-6.489
			c-0.572-3.101-0.223-6.048,1.526-8.738c0.367-0.565,0.826-1.071,1.246-1.602c0.053-0.066,0.129-0.114,0.194-0.171
			C152.792,55.386,152.811,55.396,152.831,55.408z"/>
		<path fill-rule="evenodd" clip-rule="evenodd" fill="#FF2400" d="M160.617,52.658c-0.216,1.191-0.354,2.321-0.316,3.466
			c0.107,3.175,1.36,5.807,3.789,7.853c1.64,1.381,3.467,2.457,5.556,3c3.147,0.816,6.072,0.328,8.692-1.662
			c0.406-0.308,0.77-0.67,1.215-1.061c-0.061,0.143-0.091,0.227-0.129,0.308c-1.098,2.321-2.918,3.821-5.314,4.665
			c-1.386,0.487-2.818,0.717-4.282,0.656c-2.928-0.123-5.474-1.182-7.621-3.188c-1.552-1.448-2.784-3.111-3.372-5.178
			c-0.615-2.154-0.669-4.306,0.216-6.416C159.419,54.219,159.95,53.438,160.617,52.658z"/>
		<path fill-rule="evenodd" clip-rule="evenodd" fill="#FF2400" d="M178.213,59.147c-0.822,1.248-1.899,2.018-3.288,2.263
			c-1.986,0.352-3.899,0.076-5.604-1.043c-1.887-1.238-3.056-3.014-3.417-5.245c-0.242-1.497,0.243-2.851,1.2-4.107
			c-0.021,0.237-0.035,0.41-0.054,0.583c-0.291,2.604,0.63,4.716,2.623,6.375c1.103,0.918,2.339,1.594,3.758,1.893
			c1.552,0.325,3.031,0.076,4.461-0.567C177.976,59.26,178.057,59.221,178.213,59.147z"/>
	</g>
	<path fill="#FF2400" d="M264.55,50.229c-8.282,0-14.998,6.714-14.998,14.999c0,8.284,6.716,15.001,14.998,15.001
		c8.286,0,15.002-6.717,15.002-15.001C279.552,56.943,272.836,50.229,264.55,50.229z M272.642,58.91
		c-0.695,0.023-1.176-0.391-1.197-1.021c-0.006-0.232,0.053-0.433,0.211-0.669c0.155-0.304,0.188-0.338,0.185-0.47
		c-0.014-0.396-0.614-0.413-0.778-0.404c-2.251,0.074-2.846,3.111-3.326,5.584l-0.236,1.303c1.297,0.19,2.217-0.044,2.73-0.377
		c0.725-0.469-0.201-0.951-0.086-1.484c0.119-0.545,0.614-0.807,1.008-0.818c0.55-0.013,0.941,0.559,0.93,1.138
		c-0.02,0.958-1.29,2.274-3.832,2.221c-0.311-0.008-0.595-0.03-0.861-0.061l-0.479,2.646c-0.43,2.005-1,4.744-3.042,7.134
		c-1.753,2.084-3.532,2.409-4.329,2.435c-1.49,0.052-2.479-0.744-2.515-1.804c-0.035-1.027,0.874-1.589,1.471-1.607
		c0.795-0.027,1.346,0.549,1.367,1.214c0.02,0.562-0.273,0.736-0.468,0.844c-0.13,0.104-0.325,0.21-0.318,0.442
		c0.006,0.099,0.112,0.326,0.442,0.316c0.631-0.022,1.049-0.334,1.342-0.543c1.452-1.211,2.011-3.318,2.743-7.157l0.152-0.931
		c0.25-1.249,0.527-2.641,0.949-4.027c-1.023-0.771-1.638-1.727-3.015-2.1c-0.943-0.257-1.519-0.038-1.923,0.473
		c-0.479,0.606-0.321,1.394,0.143,1.857l0.765,0.845c0.938,1.083,1.45,1.927,1.258,3.061c-0.306,1.81-2.464,3.199-5.013,2.416
		c-2.177-0.673-2.583-2.212-2.322-3.062c0.23-0.747,0.824-0.889,1.404-0.711c0.622,0.192,0.865,0.947,0.688,1.529
		c-0.02,0.063-0.053,0.166-0.116,0.304c-0.072,0.159-0.206,0.3-0.264,0.487c-0.141,0.455,0.484,0.778,0.92,0.912
		c0.974,0.301,1.923-0.209,2.165-0.997c0.223-0.724-0.234-1.229-0.424-1.423l-0.922-0.987c-0.423-0.47-1.351-1.78-0.897-3.251
		c0.175-0.564,0.542-1.168,1.075-1.567c1.126-0.839,2.35-0.977,3.516-0.642c1.509,0.436,2.233,1.433,3.174,2.203
		c0.525-1.541,1.254-3.054,2.351-4.326c0.989-1.163,2.32-2.003,3.845-2.056c1.521-0.049,2.673,0.64,2.711,1.732
		C273.837,57.976,273.569,58.879,272.642,58.91z"/>
	<g>
		<circle fill="#FF2400" cx="214.764" cy="65.15" r="2.679"/>
		<path fill="#FF2400" d="M214.764,71.292c-3.763,0-7.052-0.445-9.515-1.286c-1.598-0.547-2.952-1.271-3.917-2.099
			c-1.026-0.878-1.567-1.831-1.567-2.757c0-1.771,1.945-3.507,5.203-4.643c2.673-0.932,6.151-1.444,9.796-1.444
			c3.577,0,7.009,0.503,9.667,1.418c1.553,0.534,2.863,1.227,3.791,1.999c1.008,0.843,1.541,1.766,1.541,2.67
			c0,1.842-2.174,3.706-5.676,4.867C221.604,70.84,218.294,71.292,214.764,71.292z M214.764,60.345c-3.453,0-6.87,0.501-9.372,1.372
			c-3.002,1.048-4.346,2.479-4.346,3.434c0,0.995,1.445,2.558,4.619,3.643c2.329,0.796,5.475,1.217,9.099,1.217
			c3.397,0,6.565-0.43,8.921-1.209c3.296-1.094,4.797-2.658,4.797-3.65c0-0.505-0.384-1.103-1.082-1.686
			c-0.809-0.674-1.979-1.287-3.387-1.771C221.486,60.823,218.202,60.345,214.764,60.345z"/>
		<path fill="#FF2400" d="M208.68,78.509c-0.546,0-1.028-0.118-1.433-0.351c-1.534-0.885-2.065-3.438-1.422-6.828
			c0.528-2.779,1.822-6.051,3.643-9.208c1.786-3.098,3.938-5.819,6.057-7.664c1.947-1.694,3.844-2.627,5.339-2.627
			c0.521,0,0.981,0.115,1.37,0.339c1.596,0.92,2.123,3.735,1.38,7.349c-0.527,2.562-1.79,5.655-3.554,8.713
			c-1.879,3.26-3.908,5.888-5.866,7.6C212.247,77.533,210.237,78.509,208.68,78.509z M220.863,53.112
			c-1.152,0-2.834,0.864-4.497,2.313c-2.016,1.754-4.071,4.36-5.789,7.339c-1.725,2.991-2.998,6.201-3.492,8.807
			c-0.594,3.121-0.023,5,0.803,5.478c0.207,0.12,0.473,0.18,0.792,0.18c1.233,0,2.979-0.883,4.671-2.36
			c1.854-1.621,3.789-4.137,5.6-7.275c1.697-2.943,2.906-5.902,3.408-8.332c0.7-3.401,0.095-5.484-0.766-5.979
			C221.401,53.169,221.155,53.112,220.863,53.112z"/>
		<path fill="#FF2400" d="M220.853,78.521c-1.475,0-3.33-0.898-5.223-2.526c-2.145-1.847-4.332-4.6-6.157-7.755
			c-1.792-3.095-3.075-6.318-3.616-9.075c-0.314-1.612-0.373-3.094-0.168-4.283c0.223-1.296,0.755-2.22,1.537-2.673
			c0.4-0.231,0.875-0.349,1.41-0.349c1.566,0,3.623,1.029,5.645,2.825c1.955,1.734,4.006,4.373,5.775,7.429
			c1.885,3.257,3.148,6.326,3.653,8.878c0.327,1.658,0.38,3.193,0.147,4.442c-0.246,1.327-0.8,2.274-1.602,2.737
			C221.856,78.403,221.386,78.521,220.853,78.521z M208.636,53.142c-0.308,0-0.566,0.06-0.768,0.177
			c-0.438,0.252-0.762,0.885-0.917,1.781c-0.179,1.037-0.122,2.357,0.164,3.82c0.513,2.62,1.743,5.703,3.466,8.679
			c1.73,2.989,3.876,5.694,5.885,7.425c1.637,1.408,3.236,2.216,4.387,2.216c0.304,0,0.56-0.06,0.761-0.177
			c0.86-0.498,1.489-2.531,0.839-5.821c-0.479-2.415-1.691-5.349-3.507-8.485c-1.7-2.939-3.66-5.466-5.515-7.113
			C211.667,54.076,209.874,53.142,208.636,53.142z"/>
	</g>
	<g>
		<path fill="#FF2400" d="M56.765,73.551h-1.158c-0.041-1.955-0.153-3.791-0.338-5.514h-0.011l-1.762,5.514h-0.881l-1.752-5.514
			h-0.01c-0.13,1.653-0.211,3.49-0.246,5.514h-1.056c0.068-2.461,0.239-4.766,0.512-6.917h1.435l1.67,5.081h0.011l1.68-5.081h1.373
			C56.532,69.154,56.71,71.46,56.765,73.551"/>
		<path fill="#FF2400" d="M61.785,68.447c-0.471,2.557-1.093,4.416-1.865,5.576c-0.601,0.894-1.26,1.339-1.977,1.339
			c-0.191,0-0.427-0.058-0.707-0.171v-0.617c0.137,0.02,0.297,0.031,0.481,0.031c0.335,0,0.604-0.093,0.81-0.277
			c0.246-0.225,0.369-0.478,0.369-0.758c0-0.191-0.096-0.584-0.287-1.178l-1.271-3.945h1.137l0.912,2.951
			c0.205,0.669,0.29,1.137,0.256,1.404c0.499-1.333,0.847-2.784,1.045-4.355H61.785z"/>
		<polygon fill="#FF2400" points="77.194,73.551 73.905,73.551 73.905,66.634 75.012,66.634 75.012,72.699 77.194,72.699 		"/>
		<path fill-rule="evenodd" clip-rule="evenodd" fill="#FF2400" d="M73.045,73.717l-1.271-0.627c0.113-0.093,0.221-0.193,0.318-0.31
			c0.54-0.634,0.81-1.573,0.81-2.817c0-2.287-0.898-3.432-2.694-3.432c-0.881,0-1.567,0.29-2.06,0.871
			c-0.54,0.635-0.81,1.571-0.81,2.809c0,1.215,0.239,2.105,0.717,2.672c0.438,0.514,1.096,0.77,1.978,0.77
			c0.329,0,0.631-0.041,0.905-0.122l1.656,0.964L73.045,73.717z M68.926,72.166c-0.28-0.451-0.42-1.174-0.42-2.171
			c0-1.741,0.529-2.613,1.587-2.613c0.554,0,0.96,0.208,1.22,0.625c0.28,0.45,0.42,1.167,0.42,2.151
			c0,1.756-0.529,2.633-1.588,2.633C69.592,72.791,69.186,72.584,68.926,72.166"/>
		<path fill="#FF2400" d="M66.855,71.633c0,0.586-0.216,1.068-0.645,1.445c-0.43,0.375-1.007,0.563-1.731,0.563
			c-0.676,0-1.332-0.217-1.967-0.646l0.297-0.595c0.547,0.273,1.042,0.41,1.486,0.41c0.417,0,0.742-0.092,0.978-0.275
			c0.235-0.186,0.376-0.441,0.376-0.768c0-0.412-0.287-0.764-0.812-1.057c-0.485-0.267-1.455-0.822-1.455-0.822
			c-0.525-0.383-0.789-0.795-0.789-1.472c0-0.56,0.196-1.013,0.589-1.358c0.393-0.345,0.9-0.518,1.521-0.518
			c0.642,0,1.226,0.172,1.752,0.514l-0.268,0.594c-0.45-0.191-0.894-0.287-1.331-0.287c-0.354,0-0.628,0.085-0.819,0.256
			c-0.192,0.17-0.311,0.39-0.311,0.656c0,0.41,0.292,0.764,0.833,1.064c0.491,0.266,1.484,0.833,1.484,0.833
			C66.586,70.554,66.855,70.961,66.855,71.633"/>
		<path fill-rule="evenodd" clip-rule="evenodd" fill="#FF2400" d="M78.583,64.318c-0.669-0.018-1.187,0.049-1.621,0.232
			c-0.125,0.051-0.326,0.051-0.343,0.209c0.067,0.066,0.075,0.176,0.135,0.268c0.1,0.168,0.274,0.393,0.434,0.51
			c0.175,0.135,0.351,0.268,0.535,0.385c0.326,0.201,0.693,0.318,1.011,0.518c0.185,0.117,0.367,0.268,0.552,0.395
			c0.092,0.066,0.149,0.174,0.267,0.217v-0.027c-0.059-0.074-0.076-0.184-0.133-0.267c-0.084-0.083-0.167-0.158-0.251-0.241
			c-0.243-0.326-0.544-0.611-0.869-0.844c-0.268-0.186-0.853-0.436-0.961-0.743c0,0-0.008-0.009-0.017-0.019
			c0.184-0.016,0.402-0.084,0.577-0.135c0.284-0.074,0.542-0.057,0.835-0.133c0.134-0.033,0.268-0.075,0.401-0.115v-0.076
			c-0.151-0.15-0.259-0.352-0.418-0.494c-0.426-0.367-0.895-0.726-1.379-1.026c-0.259-0.168-0.594-0.276-0.869-0.418
			c-0.1-0.05-0.267-0.075-0.326-0.159c-0.15-0.184-0.234-0.426-0.343-0.645c-0.242-0.459-0.476-0.967-0.685-1.453
			c-0.15-0.325-0.242-0.651-0.426-0.953c-0.861-1.42-1.796-2.279-3.234-3.124c-0.31-0.177-0.677-0.251-1.069-0.343
			c-0.209-0.01-0.419-0.025-0.627-0.033c-0.134-0.059-0.268-0.219-0.385-0.293c-0.476-0.301-1.704-0.953-2.055-0.092
			c-0.226,0.543,0.334,1.078,0.526,1.354c0.143,0.191,0.327,0.409,0.426,0.627c0.059,0.142,0.076,0.293,0.134,0.442
			c0.134,0.368,0.259,0.778,0.435,1.12c0.092,0.176,0.191,0.359,0.309,0.518c0.067,0.092,0.184,0.134,0.209,0.285
			c-0.117,0.167-0.125,0.417-0.192,0.627c-0.3,0.943-0.184,2.113,0.243,2.807c0.133,0.209,0.451,0.668,0.877,0.492
			c0.376-0.15,0.292-0.625,0.401-1.043c0.024-0.101,0.008-0.167,0.058-0.234v0.018c0.117,0.232,0.234,0.457,0.343,0.693
			c0.259,0.408,0.71,0.834,1.086,1.119c0.2,0.15,0.359,0.408,0.609,0.502v-0.025h-0.016c-0.05-0.076-0.125-0.109-0.192-0.168
			c-0.151-0.15-0.317-0.334-0.435-0.5c-0.351-0.469-0.66-0.986-0.936-1.521c-0.134-0.26-0.25-0.543-0.359-0.803
			c-0.05-0.1-0.05-0.251-0.134-0.301c-0.125,0.184-0.309,0.344-0.4,0.568c-0.159,0.359-0.176,0.803-0.234,1.262
			c-0.034,0.008-0.017,0-0.034,0.017c-0.267-0.067-0.359-0.342-0.459-0.576c-0.25-0.593-0.292-1.546-0.075-2.229
			c0.059-0.177,0.31-0.729,0.209-0.896c-0.05-0.158-0.218-0.25-0.309-0.375c-0.108-0.16-0.226-0.359-0.301-0.535
			c-0.2-0.469-0.301-0.986-0.518-1.453c-0.1-0.219-0.276-0.444-0.417-0.645c-0.159-0.225-0.334-0.384-0.46-0.651
			c-0.042-0.093-0.101-0.243-0.034-0.343c0.017-0.066,0.051-0.092,0.118-0.109c0.108-0.092,0.417,0.025,0.525,0.076
			c0.31,0.125,0.569,0.242,0.828,0.417c0.117,0.083,0.243,0.243,0.393,0.284h0.176c0.268,0.059,0.568,0.018,0.819,0.093
			c0.442,0.142,0.844,0.351,1.203,0.575c1.095,0.695,1.998,1.682,2.607,2.859c0.1,0.191,0.142,0.367,0.234,0.566
			c0.176,0.412,0.393,0.829,0.568,1.229c0.175,0.392,0.342,0.794,0.594,1.12c0.125,0.176,0.627,0.267,0.852,0.359
			c0.167,0.074,0.427,0.141,0.577,0.233c0.284,0.175,0.567,0.376,0.836,0.569C78.139,63.941,78.557,64.15,78.583,64.318"/>
		<path fill="#FF2400" d="M79.379,73.551h0.173v-0.85h-0.26l-0.211,0.578l-0.231-0.578h-0.25v0.85h0.164v-0.646h0.009l0.241,0.646
			h0.125l0.241-0.646V73.551z M77.984,73.551h0.183v-0.705h0.24v-0.145h-0.671v0.145h0.249V73.551z"/>
	</g>
	<g>
		<path fill="#FF2400" d="M328.985,63.84l-13.098-13.098c-0.755-0.755-1.979-0.755-2.733,0l-2.72,2.72l3.451,3.45
			c0.802-0.271,1.721-0.089,2.359,0.55c0.643,0.643,0.823,1.571,0.545,2.376l3.326,3.324c0.805-0.277,1.732-0.098,2.375,0.546
			c0.898,0.897,0.898,2.353,0,3.251s-2.354,0.898-3.252,0c-0.676-0.676-0.842-1.668-0.5-2.5l-3.102-3.102v8.161
			c0.219,0.108,0.426,0.253,0.607,0.435c0.898,0.897,0.898,2.353,0,3.252c-0.897,0.898-2.354,0.898-3.25,0
			c-0.898-0.899-0.898-2.354,0-3.252c0.221-0.222,0.479-0.389,0.752-0.502v-8.236c-0.273-0.111-0.529-0.279-0.752-0.501
			c-0.681-0.681-0.844-1.679-0.495-2.513l-3.401-3.403l-8.981,8.981c-0.755,0.756-0.755,1.979,0,2.733l13.099,13.097
			c0.754,0.755,1.977,0.755,2.731,0l13.038-13.037C329.74,65.818,329.74,64.594,328.985,63.84z"/>
	</g>
	<path fill-rule="evenodd" clip-rule="evenodd" fill="#FF2400" d="M324.052,2.127c0-0.552-0.447-1-1-1h-17c-0.553,0-1,0.448-1,1v28
		c0,0.552,0.447,1,1,1h17c0.553,0,1-0.448,1-1V2.127z M314.833,29.188c-0.709,0-1.281-0.573-1.281-1.281
		c0-0.708,0.572-1.281,1.281-1.281c0.707,0,1.28,0.574,1.28,1.281C316.113,28.614,315.54,29.188,314.833,29.188z M323.052,24.984
		c0,0.561-0.287,2.143-0.873,2.143H307.61c-0.584,0-1.559-1.582-1.559-2.143V2.016c0-0.561,0.975,0.111,1.559,0.111h14.568
		c0.586,0,0.873-0.672,0.873-0.111V24.984z"/>
</g>
</svg>
