<?xml version="1.0" encoding="utf-8"?>
<!-- Generator: Adobe Illustrator 22.0.0, SVG Export Plug-In . SVG Version: 6.00 Build 0)  -->
<svg version="1.1" id="Layer_1" xmlns="http://www.w3.org/2000/svg" xmlns:xlink="http://www.w3.org/1999/xlink" x="0px" y="0px"
	 viewBox="0 0 152.2 59.2" style="enable-background:new 0 0 152.2 59.2;" xml:space="preserve">
<style type="text/css">
	.st0{fill:#00FF91;}
	.st1{fill:#FFFFFF;}
</style>
<g>
	<g>
		<path class="st0" d="M28.2,54.8c-0.4-0.3-1-0.5-1.7-0.5c-0.7,0-1.3,0.2-1.8,0.5s-0.7,0.8-0.7,1.4c0,0.6,0.2,1,0.7,1.3
			c0.5,0.3,1,0.4,1.8,0.4c0.7,0,1.3-0.2,1.8-0.5c0.5-0.3,0.7-0.7,0.7-1.3C28.8,55.6,28.6,55.2,28.2,54.8z"/>
		<path class="st0" d="M44,41c-0.4-0.3-1-0.4-1.6-0.4c-0.5,0-1,0.1-1.5,0.2S40,41,39.6,41.2c0,0.3,0,0.5,0.1,0.8s0,0.5,0,0.8
			c0,0.6-0.1,1.2-0.2,1.8c-0.1,0.3-0.1,0.7-0.2,1.1c-0.1,0-0.3-0.1-0.6-0.1c-0.4,0-0.7,0-1,0c-1,0-1.9,0.2-2.8,0.6
			c-0.9,0.4-1.6,0.9-2.2,1.7s-1.1,1.5-1.5,2.5c-0.4,1-0.5,2-0.5,3.1c0,0.9,0.1,1.7,0.4,2.4c0.3,0.7,0.7,1.2,1.2,1.6
			c0.6,0.4,1.3,0.5,2.1,0.5c0.7,0,1.4-0.1,2-0.3c0.6-0.2,1-0.5,1.4-0.9c0.2,0.4,0.5,0.8,1,1s0.9,0.3,1.4,0.3c0.4,0,0.8-0.1,1.3-0.2
			c0.4-0.1,0.8-0.3,1.2-0.6c0.3-0.3,0.6-0.6,0.7-1c-0.4,0-0.7-0.2-0.9-0.4s-0.3-0.5-0.3-0.8c0-0.1,0-0.3,0-0.5
			c0-0.2,0.1-0.3,0.1-0.4c0.3-1.3,0.6-2.6,0.8-3.8c0.2-1.1,0.4-2.1,0.6-3.1l0,0c0.2-0.7,0.3-1.4,0.4-2c0.1-0.6,0.2-1,0.2-1.4
			c0.1-0.4,0.1-0.7,0.1-1C44.6,41.8,44.4,41.3,44,41z M37.7,53.9c-0.1,0.4-0.2,0.7-0.3,1.1s-0.3,0.7-0.5,1s-0.5,0.4-0.9,0.4
			c-0.3,0-0.5-0.2-0.6-0.5c-0.1-0.3-0.1-0.6-0.1-1c0-0.5,0-1.1,0.1-1.8c0-0.7,0.1-1.4,0.2-2.1c0.1-0.7,0.3-1.4,0.5-2.1
			c0.2-0.6,0.5-1.2,0.8-1.6c0.3-0.4,0.7-0.6,1.1-0.6c0.1,0,0.3,0,0.4,0.1c0.2,0.1,0.3,0.1,0.5,0.3L37.7,53.9z"/>
		<path class="st0" d="M54.1,45.8c-0.6-0.2-1.2-0.2-1.9-0.2c-1.3,0-2.5,0.2-3.4,0.6c-1,0.4-1.7,1-2.3,1.7s-1.1,1.5-1.4,2.4
			c-0.3,0.9-0.4,1.8-0.4,2.8c0,1.1,0.2,2,0.7,2.7c0.4,0.7,1,1.2,1.8,1.5s1.6,0.5,2.5,0.5c0.8,0,1.6-0.1,2.4-0.4
			c0.8-0.2,1.4-0.6,1.9-1.1s0.8-1.1,0.8-1.8c0-0.3,0-0.5-0.1-0.6s-0.2-0.3-0.4-0.5c-0.3,0.4-0.7,0.8-1.3,1c-0.6,0.2-1.2,0.3-1.7,0.3
			c-0.6,0-1.1-0.2-1.4-0.5c-0.3-0.3-0.4-0.7-0.4-1.3c0-0.1,0-0.3,0-0.4c0-0.2,0-0.3,0-0.4c0.2,0,0.4,0,0.6,0s0.4,0,0.6,0
			c1.3-0.1,2.4-0.3,3.3-0.6c0.8-0.3,1.5-0.7,1.8-1.3c0.4-0.5,0.6-1.1,0.6-1.8c0-0.8-0.2-1.4-0.6-1.8C55.2,46.2,54.7,46,54.1,45.8z
			 M52.3,49.2c-0.1,0.4-0.3,0.8-0.5,1.1s-0.6,0.6-0.9,0.7s-0.8,0.3-1.4,0.3c0.1-0.9,0.3-1.6,0.5-2.2s0.4-1.1,0.6-1.4
			c0.2-0.3,0.4-0.6,0.6-0.7c0.2-0.2,0.4-0.2,0.6-0.2c0.3,0,0.5,0.1,0.6,0.3s0.2,0.5,0.2,0.9C52.4,48.4,52.4,48.8,52.3,49.2z"/>
		<path class="st0" d="M68.3,46.4c-0.2-0.3-0.5-0.5-0.8-0.6c-0.3-0.1-0.7-0.2-1-0.2c-0.5,0-0.9,0.1-1.2,0.2s-0.6,0.4-0.9,0.6
			c0.1,0.2,0.1,0.4,0.1,0.7c0,0.2,0,0.4,0,0.6c0,0.6-0.1,1.3-0.2,2.1c-0.1,0.7-0.3,1.5-0.5,2.2s-0.5,1.4-0.8,2.1
			c-0.3,0.6-0.7,1.2-1.2,1.6c0-1,0-1.8,0-2.5c0-0.7,0-1.3,0-1.8c0-0.5,0-0.9,0-1.2s0-0.6,0-0.8c0-0.2,0-0.4,0-0.6
			c-0.1-1.1-0.3-1.9-0.7-2.4c-0.4-0.6-1.2-0.8-2.3-0.8c-0.5,0-0.9,0.1-1.4,0.2c-0.4,0.1-0.9,0.4-1.4,0.7c0.3,0.2,0.4,0.4,0.6,0.8
			c0.1,0.4,0.2,0.9,0.3,1.6c0.1,0.7,0.2,1.6,0.3,2.5c0.1,1,0.1,2,0.2,3.1s0.1,2.3,0.1,3.5c0.2,0,0.3,0,0.5,0c0.2,0,0.3,0,0.5,0
			c1.6,0,2.9-0.3,4.1-1s2.3-1.8,3.3-3.3c0.5-0.7,0.9-1.4,1.3-2.1c0.4-0.7,0.7-1.5,1-2.2s0.4-1.3,0.4-1.9
			C68.7,47.1,68.5,46.7,68.3,46.4z"/>
	</g>
	<g>
		<path class="st1" d="M52.5,28.4l2.8-15l-9,0.9L44,28.4c-0.1,0.6-0.3,1.3-0.5,2c-0.2,0.7-0.6,1.4-1,1.9c-0.4,0.5-1,0.8-1.7,0.8
			c-0.4,0-0.6-0.1-0.7-0.2c-0.1-0.2-0.2-0.4-0.3-0.6c0-0.3-0.1-0.6-0.1-0.8c0-0.5,0.1-1.2,0.2-2c0.1-0.8,0.3-1.9,0.6-3.3
			s0.6-3.1,1-5.1s0.9-4.6,1.4-7.5l-9,0.9c-0.6,3.3-1,6.1-1.4,8.2c-0.4,2.2-0.6,3.8-0.8,5.1c-0.2,1.2-0.2,2.1-0.2,2.7
			c0,1.3,0.3,2.4,0.8,3.2c0.6,0.8,1.3,1.3,2.3,1.7c1,0.3,2,0.5,3.1,0.5c1.3,0,2.6-0.2,3.8-0.6c1.2-0.4,2.2-1,2.9-1.7
			c0.3,0.8,0.9,1.4,1.7,1.7s1.7,0.6,2.6,0.6c0.7,0,1.5-0.1,2.3-0.3c0.8-0.2,1.5-0.6,2.1-1.1c0.6-0.5,1.1-1.1,1.3-1.9
			c-0.7-0.1-1.3-0.3-1.6-0.8c-0.3-0.5-0.5-1-0.5-1.5c0-0.3,0-0.6,0.1-0.9C52.5,28.9,52.5,28.6,52.5,28.4z"/>
		<path class="st1" d="M78.4,25.6c0.2-0.8,0.4-1.7,0.6-2.6c0.2-0.9,0.4-1.7,0.5-2.6c0.1-0.8,0.2-1.6,0.2-2.2c0-1.8-0.5-3-1.6-3.7
			c-1.1-0.7-2.5-1-4.3-1c-1.7,0-3.2,0.3-4.5,0.9c-1.3,0.6-2.3,1.6-3.1,3.1l0.7-4l-7.3,0.9l-4.2,21.5l9-0.9l2.4-12.5
			c0.2-0.8,0.4-1.7,0.6-2.5c0.3-0.9,0.6-1.6,1-2.3c0.4-0.6,0.9-0.9,1.6-0.9c0.5,0,0.9,0.2,1,0.6s0.2,0.8,0.2,1.2
			c0,0.7-0.1,1.5-0.2,2.3c-0.2,0.9-0.4,1.8-0.6,2.8c-0.2,1-0.4,1.9-0.7,2.9c-0.2,1-0.4,1.9-0.6,2.7c-0.2,0.8-0.2,1.6-0.2,2.2
			c0,1.5,0.5,2.6,1.5,3.3c1,0.7,2.2,1.1,3.7,1.1c1.2,0,2.4-0.3,3.5-0.8s1.9-1.4,2.2-2.5c-0.7-0.1-1.3-0.3-1.6-0.8
			c-0.3-0.4-0.5-1-0.5-1.7c0-0.6,0.1-1.2,0.2-2C78,27.2,78.2,26.4,78.4,25.6z"/>
		<path class="st1" d="M98.2,13.9c-1.1-0.3-2.2-0.4-3.5-0.4c-2.4,0-4.4,0.4-6.1,1.1c-1.7,0.8-3.1,1.8-4.2,3.1
			C83.3,19,82.5,20.4,82,22c-0.5,1.6-0.8,3.3-0.8,5.1c0,2,0.4,3.6,1.2,4.9c0.8,1.3,1.8,2.2,3.2,2.8c1.3,0.6,2.9,0.9,4.6,0.9
			c1.5,0,3-0.2,4.4-0.7c1.4-0.4,2.6-1.1,3.5-2c0.9-0.9,1.4-2,1.4-3.2c0-0.5-0.1-0.8-0.2-1.2c-0.1-0.3-0.4-0.6-0.8-0.9
			c-0.5,0.8-1.3,1.4-2.4,1.8s-2.1,0.6-3.1,0.6c-1.2,0-2-0.3-2.5-0.8c-0.5-0.6-0.7-1.3-0.7-2.4c0-0.2,0-0.5,0-0.7
			c0-0.3,0.1-0.5,0.1-0.8c0.4,0,0.7,0,1.1,0s0.7,0,1-0.1c2.4-0.2,4.4-0.5,5.9-1.1c1.5-0.6,2.6-1.3,3.3-2.3c0.7-0.9,1.1-2,1.1-3.3
			c0-1.4-0.4-2.5-1.1-3.3C100.2,14.6,99.3,14.1,98.2,13.9z M95,20c-0.2,0.7-0.5,1.4-1,1.9c-0.4,0.6-1,1-1.7,1.3
			c-0.7,0.3-1.5,0.5-2.4,0.5c0.2-1.6,0.5-2.9,0.8-4c0.3-1.1,0.6-1.9,1-2.5c0.3-0.6,0.7-1.1,1.1-1.3c0.4-0.3,0.8-0.4,1.1-0.4
			c0.5,0,0.9,0.2,1.1,0.6c0.2,0.4,0.3,0.9,0.3,1.5C95.3,18.5,95.2,19.2,95,20z"/>
		<path class="st1" d="M123.8,18.1c-0.5-1.1-1.1-2-1.9-2.6c-0.8-0.7-1.8-1.2-2.9-1.5c-1.1-0.3-2.4-0.5-3.7-0.5c-2,0-3.8,0.3-5.5,1
			c-1.6,0.6-3,1.6-4.1,2.7c-1.1,1.2-2,2.6-2.6,4.3c-0.6,1.7-0.9,3.5-0.9,5.5c0,1.6,0.2,2.9,0.7,4c0.5,1.1,1.1,2,1.9,2.7
			c0.8,0.7,1.8,1.2,3,1.5c1.1,0.3,2.4,0.5,3.7,0.5c2,0,3.8-0.3,5.4-1c1.6-0.7,3-1.6,4.1-2.8c1.1-1.2,2-2.7,2.6-4.3
			c0.6-1.7,0.9-3.5,0.9-5.5C124.5,20.5,124.2,19.2,123.8,18.1z M116.1,21.7c-0.1,1.3-0.3,2.7-0.5,4c-0.2,1.3-0.5,2.6-0.8,3.7
			s-0.7,2.1-1.2,2.8c-0.5,0.7-1,1.1-1.6,1.1s-1-0.2-1.2-0.6c-0.2-0.4-0.3-1-0.3-1.7c0-1.1,0-2.3,0.1-3.6c0.1-1.3,0.2-2.7,0.4-4
			c0.2-1.3,0.5-2.6,0.8-3.7s0.7-2,1.2-2.7c0.5-0.7,1-1,1.6-1c0.6,0,1,0.2,1.2,0.6c0.2,0.4,0.3,1,0.3,1.7
			C116.2,19.2,116.2,20.4,116.1,21.7z"/>
		<path class="st1" d="M22.6,1.4c-1.2-0.4-2.5-0.7-3.8-1C17.6,0.1,16.1,0,14.5,0c-3.2,0-5.9,0.7-8.1,2C4.3,3.4,2.7,5.1,1.6,7.1
			C0.5,9.2,0,11.3,0,13.5c0,1.6,0.3,3.1,0.9,4.4c0.6,1.3,1.5,2.3,2.7,3.1c1.2,0.8,2.6,1.2,4.3,1.2c0.6,0,1.3-0.1,2.1-0.3
			c0.7-0.2,1.4-0.6,1.9-1.1c-0.7-1.3-1.1-2.6-1.4-3.8c-0.3-1.2-0.4-2.4-0.4-3.7c0-2.8,0.7-5,2-6.6c1.3-1.6,3.2-2.4,5.6-2.4
			c1.1,0,2,0.1,2.8,0.4c0.7,0.3,1.4,0.6,2,0.9L22.6,6l0.2-0.1c-1.2,0.9-2.3,2-3.2,3.2c-1.2,1.7-2,3.7-2.5,6.1l-4.9,25.3
			c-0.4,2.4-0.9,4.5-1.4,6.3c-0.5,1.8-1,3.3-1.6,4.5c-0.6,1.2-1.3,2.2-2.1,3c-0.8,0.8-1.7,1.4-2.9,1.9c0.4,1,1.2,1.8,2.3,2.3
			c1.1,0.5,2.3,0.8,3.7,0.8c2.4,0,4.4-0.7,6-2.2c1.6-1.5,3-3.6,4.1-6.5c1.1-2.9,2.1-6.5,2.9-10.7L30.5,3c-1.5-0.1-2.9-0.3-4.2-0.6
			C25.1,2.1,23.8,1.8,22.6,1.4z"/>
	</g>
	<g>
		<g>
			<path class="st0" d="M130.6,39.6c-1.1,0-2-0.4-2.8-1.1c-0.8-0.7-1.3-1.6-1.6-2.7L140,23.4l-7-7.1c-0.3-0.3-0.5-0.6-0.6-1.1
				c-0.1-0.4-0.2-0.9-0.2-1.4c0-0.7,0.2-1.4,0.6-2.2c0.4-0.8,1-1.5,1.9-2.1s2-0.9,3.3-0.9l14.3,15.2l-17,13.9
				C133.7,38.9,132.2,39.6,130.6,39.6z"/>
		</g>
	</g>
</g>
</svg>
