<?xml version="1.0" encoding="utf-8"?>
<!-- Generator: Adobe Illustrator 16.0.0, SVG Export Plug-In . SVG Version: 6.00 Build 0)  -->
<!DOCTYPE svg PUBLIC "-//W3C//DTD SVG 1.1//EN" "http://www.w3.org/Graphics/SVG/1.1/DTD/svg11.dtd">
<svg version="1.1" id="Layer_1" xmlns="http://www.w3.org/2000/svg" xmlns:xlink="http://www.w3.org/1999/xlink" x="0px" y="0px"
	 width="100px" height="100px" viewBox="0 0 100 100" enable-background="new 0 0 100 100" xml:space="preserve">
<g>
	<path fill="#FFFFFF" d="M50.715,44.832c0-0.921,2.358-4.375,5.523-4.375c3.169,0,4.895,1.266,6.392,2.59
		c-0.28-0.625-0.644-1.394-1.19-2.113v-0.002c-0.004-0.003-0.008-0.007-0.01-0.01c-0.16-0.208-0.343-0.409-0.539-0.604
		c-0.045-0.045-0.086-0.088-0.133-0.131c-0.203-0.191-0.427-0.373-0.671-0.538c-0.043-0.028-0.088-0.053-0.133-0.08
		c-0.229-0.147-0.479-0.278-0.752-0.395c-0.052-0.021-0.099-0.046-0.149-0.067c-0.304-0.12-0.638-0.213-0.996-0.286
		c-0.076-0.016-0.158-0.028-0.24-0.042c-0.383-0.063-0.78-0.106-1.229-0.106c-3.913,0-7.138,3.223-7.138,5.813
		c0,2.59,0,11.339,0,11.339l-2.015,0.807l3.28,1.267C50.715,57.898,50.715,45.754,50.715,44.832z"/>
	<path fill="#FFFFFF" d="M41.043,39.479c2.304,0,4.377,1.267,5.064,1.267c0-0.33-0.128-0.681-0.365-1.022l0,0
		c0-0.001,0-0.002-0.004-0.002c-0.002-0.006-0.009-0.012-0.014-0.018c-0.105-0.147-0.234-0.292-0.381-0.433
		c-0.049-0.045-0.102-0.088-0.148-0.133c-0.119-0.105-0.25-0.206-0.393-0.304c-0.059-0.041-0.114-0.082-0.178-0.122
		c-0.203-0.129-0.42-0.252-0.663-0.361c-0.003-0.002-0.009-0.003-0.015-0.006c-0.235-0.104-0.492-0.197-0.759-0.278
		c-0.082-0.025-0.166-0.044-0.25-0.067c-0.21-0.055-0.425-0.1-0.649-0.137c-0.09-0.016-0.18-0.031-0.271-0.043
		c-0.314-0.04-0.635-0.068-0.977-0.068c-2.588,0-4.258,1.554-5.235,3.454c0.007-0.007,0.015-0.011,0.021-0.018l0,0
		C36.98,40.051,38.755,39.479,41.043,39.479z"/>
	<path fill="#FFFFFF" d="M42.312,47.559c0.873,0,1.583-0.709,1.583-1.583c0-0.204-0.047-0.396-0.117-0.574
		c0.854-0.102,1.549-0.208,1.87-0.109c-0.799-0.419-0.747-1.555-3.336-1.555c-1.567,0-3.098,1.274-4.81,2.007
		c0.015-0.005,0.041-0.006,0.052-0.011c0.542-0.185,1.835-0.167,3.259-0.174c-0.037,0.135-0.084,0.268-0.084,0.416
		c0,0.319,0.119,0.599,0.28,0.848c0.062,0.093,0.106,0.195,0.185,0.273h0.002C41.482,47.382,41.875,47.559,42.312,47.559z"/>
	<path fill="#FFFFFF" d="M59.001,46.456c0-0.141-0.045-0.267-0.078-0.396c0.429-0.021,0.847-0.047,1.231-0.084
		c-0.172-0.215-0.353-0.516-0.596-0.807c-0.098-0.116-0.209-0.229-0.326-0.336c-0.034-0.028-0.073-0.054-0.104-0.081
		c-0.094-0.075-0.192-0.144-0.308-0.208c-0.051-0.03-0.104-0.057-0.159-0.085c-0.114-0.055-0.24-0.1-0.377-0.139
		c-0.062-0.018-0.119-0.039-0.183-0.053c-0.207-0.045-0.429-0.075-0.687-0.075c-1.411,0-3.711,1.89-3.711,1.89
		s0.94,0.032,2.198,0.036c-0.024,0.113-0.069,0.217-0.069,0.338c0,0.336,0.131,0.63,0.31,0.887c0.056,0.078,0.094,0.167,0.157,0.233
		c0.285,0.285,0.683,0.463,1.115,0.463C58.294,48.039,59.001,47.33,59.001,46.456z"/>
	<path fill="#FFFFFF" d="M49.619,62.391c0.26,0,0.512,0.284,0.752,0.273c2.636-0.089,4.23-0.678,5.439-1.979
		c0.008-0.011,0.019-0.018,0.022-0.024c-0.297,0.159-0.868,0.313-1.569,0.453c-0.013,0-0.051,0.009-0.106,0.021
		c-0.021,0.003-0.031,0.005-0.048,0.009c-1.205,0.28-0.981-1.004-2.418-1.004c-0.69,0-1.32,1.428-2.072,1.428
		c-1.039,0-1.266-1.367-2.186-1.367c-0.918,0-1.38,0.855-2.288,1.063c-0.628-0.095-1.254-0.211-1.858-0.371
		c0.99,0.938,2.828,1.641,5.469,1.767C49.035,62.673,49.322,62.391,49.619,62.391z"/>
	<path fill="#FFFFFF" d="M49.711,66.014c1.471,0,2.844-0.688,3.42-2.242c-0.46,0.776-1.783,1.403-3.395,1.403
		c-0.973,0-2.277-0.452-3.629-1.403c0.07,0.131,0.159,0.269,0.26,0.401C47.058,65.098,48.424,66.014,49.711,66.014z"/>
</g>
<path fill="#FFFFFF" d="M86.236,65.115c-0.002,0-0.002-0.002-0.004-0.004c-1.35-1.156-2.521-4.582-4.303-6.715
	c-0.004-0.004-0.01-0.008-0.015-0.02c-1.329-1.584-3.325-2.129-4.263-2.129c-0.264,0-0.53,0.021-0.803,0.051
	c-0.082,0.012-0.166,0.021-0.248,0.029c-0.578,0.07-1.158,0.176-1.723,0.252c-0.097,0.014-0.191,0.021-0.287,0.033
	c-0.158,0.02-0.314,0.031-0.468,0.039c-0.103,0.008-0.198,0.008-0.294,0.008c-0.145,0-0.287,0-0.423-0.012
	c-0.093-0.012-0.183-0.031-0.274-0.051c-0.123-0.021-0.252-0.041-0.371-0.08c-0.188-0.063-0.363-0.152-0.521-0.271
	c-0.196-0.146-0.371-0.328-0.519-0.572c-0.143-0.242-0.313-0.48-0.512-0.713c-0.408-0.479-0.949-0.92-1.656-1.271
	c-0.328-0.16-0.681-0.306-1.082-0.422c0.129-0.899,0.219-1.813,0.219-2.75c0-0.125-0.018-0.248-0.02-0.37
	c0.566-0.589,1.313-0.923,1.959-0.923c1.146,0,1.551,0.746,2.818,0.746c2.936,0,3.686-5.984,7.541-5.984
	c1.729,0,2.705,0,4.835,1.151c-0.159-0.244-0.351-0.487-0.563-0.726c-0.004-0.004-0.008-0.008-0.012-0.013V44.4
	c-0.037-0.042-0.084-0.083-0.123-0.125c-0.176-0.188-0.359-0.375-0.563-0.556c-0.092-0.084-0.195-0.163-0.293-0.245
	c-0.16-0.134-0.32-0.267-0.49-0.393c-0.113-0.085-0.23-0.164-0.348-0.245c-0.166-0.114-0.334-0.227-0.507-0.332
	c-0.122-0.077-0.243-0.147-0.37-0.218c-0.173-0.099-0.35-0.192-0.521-0.28c-0.126-0.063-0.248-0.122-0.371-0.178
	c-0.18-0.083-0.361-0.155-0.542-0.223c-0.114-0.044-0.231-0.09-0.343-0.128c-0.195-0.065-0.383-0.113-0.572-0.158
	c-0.094-0.022-0.188-0.052-0.277-0.069c-0.271-0.051-0.537-0.083-0.781-0.083c-2.071,0-3.225,1.325-4.146,2.418
	c-0.922,1.095-1.837,1.378-2.935,1.036c-1.291-0.401-1.957-0.15-4.342-0.115c-0.422-1.295-0.983-2.525-1.653-3.685
	c0.075-0.17,0.171-0.326,0.297-0.46c1.036-1.094,4.372-0.058,5.005-4.433c0.637-4.375,2.65-5.468,3.628-6.446
	c0.979-0.979,6.161,0.346,8.692-2.936c-0.519,0.634-1.957,1.094-4.146,1.094s-2.188-0.806-5.065-0.806
	c-3.742,0-5.408,2.072-5.408,4.26c0,2.188-2.133,4.146-5.412,4.146c-0.323,0-0.625-0.013-0.909-0.036
	c-0.153-0.012-0.293-0.033-0.437-0.05c-0.115-0.015-0.239-0.025-0.351-0.042c-0.198-0.031-0.381-0.07-0.562-0.111
	c-0.035-0.008-0.075-0.014-0.11-0.022c-0.246-0.059-0.476-0.124-0.679-0.192c-0.27-0.195-0.539-0.387-0.817-0.567
	c-0.047-0.348-0.082-0.724-0.082-1.166c0-2.682,2.736-3.683,2.736-5.642c0-2.293-0.783-3.689-0.783-6.223
	c0-2.06,2.642-4.846,4.582-5.75c-6.619,0-8.463,3.914-8.463,8.807c0,4.583-2.271,5.984-4.214,7.341
	c-0.69-0.158-1.393-0.285-2.108-0.366c-0.127-0.289-0.235-0.695-0.235-1.269c0-1.382,1.035-1.672,1.035-3.979
	c0-3.799-3.967-5.181-3.967-8.634c0-2.529,3.455-5.291,3.455-8.468c0-1.657-0.602-3.018-0.63-3.521
	c-0.003-0.013-0.007-0.032-0.007-0.044c0,7.778-5.706,5.361-5.706,13.235c0,4.38,1.964,4.145,1.964,6.507
	c0,2.362-1.672,1.962-1.672,4.437c0,1.203-0.098,1.732-0.287,1.987c-0.917,0.184-1.802,0.45-2.668,0.759
	c-0.156-0.03-0.316-0.08-0.475-0.138c-0.004,0-0.008-0.003-0.01-0.003c-0.158-0.059-0.311-0.138-0.459-0.229
	c0,0,0-0.002-0.004-0.002c-0.703-0.442-1.278-1.297-1.278-2.947c0-0.87-0.235-2.14-0.88-3.166c0-0.001-0.002-0.002-0.002-0.003
	c-0.215-0.341-0.475-0.655-0.787-0.917c-0.141-0.12-0.297-0.226-0.459-0.325c-0.021-0.013-0.045-0.023-0.068-0.036
	c-1.148-0.662-2.734-0.931-4.02-2.172c-2.449-2.369-1.787-7.213-1.614-8.667c0.002-0.007,0.002-0.018,0.003-0.025
	c-0.748,1.094-2.016,3.799-2.016,7.54c0,0.468,0.045,0.906,0.129,1.318c0.011,0.052,0.033,0.094,0.043,0.144
	c0.082,0.355,0.18,0.7,0.31,1.016c0.017,0.04,0.041,0.073,0.06,0.113c0.138,0.315,0.291,0.618,0.467,0.897
	c0.992,1.565,2.488,2.564,3.424,3.248c0.516,0.376,0.873,1.358,1.098,2.557c0.002,0.011,0.004,0.021,0.006,0.032
	c0.105,0.574,0.181,1.194,0.229,1.824c0.002,0.03,0.004,0.06,0.007,0.09c0.021,0.304,0.037,0.607,0.047,0.909
	c0,0.034,0,0.066,0.002,0.1c0.008,0.275,0.01,0.546,0.008,0.811c0,0.037,0,0.074-0.002,0.11c-0.002,0.273-0.015,0.537-0.029,0.79
	c-0.002,0.054-0.006,0.108-0.01,0.161c-0.019,0.253-0.037,0.498-0.064,0.721c-0.469,0.415-0.92,0.852-1.348,1.311
	c-0.074-0.012-0.131-0.033-0.23-0.033c-1.439,0-3.628-4.789-7.195-4.789c-1.554,0-1.035,0.529-4.432,0.471
	c-0.195-0.003-0.382-0.038-0.564-0.089c-0.093-0.026-0.183-0.07-0.273-0.109c-0.078-0.032-0.158-0.063-0.232-0.104
	c-0.123-0.066-0.24-0.146-0.356-0.231c-0.033-0.023-0.065-0.046-0.099-0.071c-0.137-0.108-0.271-0.226-0.402-0.356l-0.002-0.001
	c-1.603-1.599-2.752-4.814-4.247-6.586c-0.011-0.012-0.021-0.021-0.031-0.034c-0.129-0.152-0.263-0.29-0.397-0.418
	c-0.047-0.043-0.095-0.082-0.142-0.123c-0.108-0.093-0.219-0.177-0.332-0.252c-0.048-0.032-0.096-0.066-0.144-0.094
	c-0.159-0.092-0.321-0.172-0.49-0.225c1.092,0.917,1.742,1.87,2.176,2.846c0.016,0.033,0.029,0.065,0.043,0.098
	c0.483,1.126,0.688,2.284,0.919,3.456c0.054,0.271,0.109,0.54,0.171,0.811c0.016,0.072,0.034,0.144,0.051,0.215
	c0.068,0.285,0.146,0.571,0.234,0.857c0.023,0.075,0.044,0.15,0.069,0.226c0.106,0.323,0.233,0.647,0.379,0.972
	c0.032,0.068,0.065,0.137,0.099,0.205c0.168,0.342,0.352,0.682,0.579,1.023c0.024,0.036,0.05,0.059,0.074,0.094
	c0.132,0.188,0.267,0.363,0.403,0.507c2.432,2.565,5.621-1.067,7.293,2.3c0.019,0.036,0.035,0.064,0.052,0.099
	c0.386,0.766,0.744,1.333,1.079,1.762c1.033,1.322,1.861,1.389,2.73,2.229c-0.063,0.128-0.117,0.262-0.178,0.391
	c-0.169,0.36-0.333,0.722-0.482,1.093c-0.16,0.395-0.313,0.793-0.441,1.202c-0.967,0.675-1.443,0.685-2.299,0.685
	c-1.094,0-1.842-1.404-3.512-1.404c-2.763,0-6.908,4.513-11.166,3.994c0.002,0.004,0.006,0.007,0.008,0.011
	c1.097,1.43,3.15,1.831,5,1.831c2.994,0,3.396-1.151,4.834-1.151c0.641,0,1.078,0.752,1.703,1.588
	c0.08,0.104,0.16,0.211,0.244,0.317c0.764,0.949,1.828,1.896,3.752,1.896c0.223,0,0.447,0.158,0.66,0.389
	c0.032,0.281,0.092,0.551,0.135,0.828c0.055,0.338,0.095,0.682,0.168,1.014c-0.865,1.729-2.653,2.086-5.107,2.086
	c-2.993,0-2.721,3.082-4.663,5.008c-1.942,1.929-4.46,2.705-5.698,2.592c0.922,0.746,2.533,1.096,5.526,1.096
	c2.993,0,5.756-4.834,7.713-4.834c1.472,0,4.116,0.748,5.336,1.121c0.082,0.109,0.169,0.221,0.252,0.334
	c0.015,0.209,0.028,0.438,0.039,0.688c0.009,0.24,0.015,0.51,0.015,0.795c0,1.896-3.138,2.787-3.914,3.564
	c-0.777,0.775-0.576,2.823-0.576,5.58c0,2.756-0.059,3.861-2.707,5.76c0.009,0,0.015,0,0.021,0c4.701-0.008,6.369-2.82,6.369-5.494
	c0-2.029,1.721-3.652,2.417-3.652c1.611,0,2.591-0.521,3.165-1.438c0.542-0.862,1.775-0.108,1.919-0.021
	c0.415,0.356,0.804,0.802,1.071,1.313c0,0,0,0,0,0.002c0.101,0.188,0.188,0.382,0.242,0.591c0.062,0.223,0.104,0.45,0.104,0.698
	c0,2.359-1.392,1.843-1.392,4.604c0,2.763,2.025,6.158,2.025,8.002c0,1.841-3.684,4.027-4.547,9.438
	c0.008-0.024,0.02-0.049,0.023-0.075c1.318-5.228,8.264-6.279,8.264-11.093c0-2.129-1.553-2.991-1.553-4.946
	c0-1.752,3.173-4.879,4.585-6.388c0.019,0,0.038,0.002,0.058,0.002c0.363,0,0.721-0.032,1.079-0.053
	c1.269,0.435,1.595,0.444,1.677,2.826c0,0.006,0,0.008,0,0.01c0.012,0.293,0.018,0.621,0.021,0.987c0,0.05,0,0.101,0.003,0.149
	c0.002,0.361,0.005,0.75,0.005,1.195c0,0.313,0.042,0.594,0.104,0.86c0.02,0.08,0.045,0.151,0.067,0.229
	c0.058,0.188,0.13,0.367,0.214,0.533c0.034,0.063,0.064,0.137,0.104,0.197c0.123,0.207,0.261,0.4,0.416,0.58
	c0.008,0.012,0.013,0.02,0.021,0.025c0.92,1.041,2.354,1.705,3.45,2.635c0.923,0.781,1.502,1.936,1.789,2.849
	c0.004,0.007,0.007,0.015,0.007,0.021c0.063,0.201,0.111,0.387,0.146,0.555c0.008,0.037,0.018,0.074,0.021,0.105
	c0.03,0.172,0.054,0.324,0.054,0.443c0,1.727-1.037,4.607-0.348,7.369c0-0.01,0-0.018,0-0.021c0.016-3.211,2.703-5.111,2.703-9.303
	c0-4.205-3.854-6.563-3.854-8.752c0-2.1,0.476-4.5,0.771-5.404c0.274-0.135,0.539-0.287,0.808-0.438c0.018,0,0.021,0,0.039,0
	c3.008-0.154,3.258,1.348,3.688,2.52c0.101,0.264,0.207,0.512,0.354,0.723c0.048,0.063,0.097,0.125,0.153,0.186
	c1.037,1.035,1.729,1.695,4.563,1.695c2.381,0,4.142,1.037,4.65,2.32l0,0c0.042,0.102,0.074,0.203,0.098,0.303
	c0.035,0.152,0.07,0.307,0.07,0.459c0,0.18,0.014,0.383,0.035,0.6c0.007,0.063,0.018,0.131,0.023,0.195
	c0.021,0.172,0.053,0.348,0.09,0.531c0.015,0.076,0.023,0.148,0.047,0.229c0.063,0.258,0.132,0.525,0.229,0.805
	c0.002,0.002,0.002,0.006,0.002,0.008c0.094,0.275,0.215,0.563,0.354,0.854c0.039,0.088,0.088,0.176,0.132,0.264
	c0.11,0.219,0.235,0.439,0.373,0.658c0.058,0.094,0.11,0.184,0.173,0.277c0.201,0.301,0.421,0.602,0.678,0.9
	c0.004,0.002,0.004,0.004,0.006,0.01c0.57,0.668,1.289,1.32,2.182,1.928c-1.153-1.271-2.188-2.881-2.188-6.682
	c0-2.367-0.536-3.934-1.474-5.107c-0.256-0.318-0.547-0.604-0.855-0.873c-0.076-0.066-0.152-0.131-0.229-0.193
	c-0.314-0.256-0.646-0.502-1.011-0.73c-0.301-0.189-0.601-0.35-0.895-0.486c-0.139-0.063-0.271-0.119-0.402-0.176
	c-0.146-0.063-0.287-0.127-0.43-0.18c-1.461-0.563-2.604-0.758-2.646-1.809c-0.057-1.389-0.605-3.135-1.779-4.291
	c0.87-1.105,1.613-2.311,2.229-3.59c0.166-0.037,0.351-0.061,0.545-0.061c0.906,0,1.301,0.813,1.807,1.535
	c0.063,0.094,0.128,0.188,0.193,0.275c0.367,0.461,0.819,0.834,1.551,0.834c1.277,0,4.804-1.6,7.258-1.674
	c1.313-0.041,2.189,0.832,2.527,1.557c0.033,0.064,0.07,0.123,0.104,0.188c0.112,0.211,0.226,0.42,0.349,0.611
	c0.094,0.137,0.19,0.268,0.295,0.395c0.039,0.057,0.08,0.115,0.121,0.172C82.521,63.918,83.991,64.598,86.236,65.115z
	 M67.313,50.537L67.313,50.537c0,9.977-8.086,18.066-18.063,18.066c-0.652,0-1.298-0.039-1.933-0.107
	c-0.185-0.02-0.361-0.059-0.544-0.084c-0.45-0.061-0.903-0.127-1.342-0.223c-0.191-0.041-0.375-0.102-0.562-0.146
	c-0.43-0.107-0.856-0.225-1.272-0.357c-0.168-0.059-0.33-0.121-0.496-0.184c-0.43-0.154-0.856-0.32-1.271-0.51
	c-0.138-0.063-0.27-0.133-0.402-0.193c-0.439-0.213-0.871-0.438-1.289-0.684c-0.099-0.061-0.196-0.119-0.295-0.182
	c-0.447-0.271-0.885-0.564-1.305-0.879c-0.063-0.047-0.126-0.092-0.188-0.141c-0.45-0.344-0.887-0.705-1.301-1.088
	c-0.031-0.027-0.062-0.055-0.088-0.082c-0.447-0.416-0.873-0.85-1.275-1.307c0-0.006-0.002-0.006-0.004-0.006c0,0,0-0.002,0-0.005
	c-2.793-3.179-4.498-7.332-4.498-11.896c0-6.24,3.166-11.74,7.976-14.984c2.881-1.948,6.356-3.085,10.097-3.085
	c0.396,0,0.777,0.04,1.166,0.066c0.236,0.015,0.479,0.016,0.719,0.04c0.283,0.03,0.563,0.086,0.847,0.13
	c0.364,0.055,0.729,0.108,1.091,0.186c0.193,0.043,0.387,0.1,0.583,0.15c0.438,0.111,0.876,0.23,1.306,0.373
	c0.135,0.044,0.264,0.096,0.395,0.144c0.472,0.17,0.938,0.355,1.389,0.563c0.043,0.019,0.09,0.033,0.131,0.053l0.07,0.043
	c1.331,0.629,2.576,1.401,3.707,2.321l0.087,0.054l-0.005-0.004c0.199,0.166,0.385,0.351,0.578,0.524l0.023,0.035
	c0.973,0.878,1.852,1.858,2.614,2.923c0,0.003,0.005,0.007,0.005,0.01c0.374,0.521,0.725,1.062,1.039,1.622
	c0.316,0.56,0.605,1.139,0.859,1.737l0.021,0.028c0.918,2.168,1.43,4.553,1.43,7.056C67.313,50.527,67.313,50.531,67.313,50.537z"/>
</svg>
