<?xml version="1.0" encoding="utf-8"?>
<!-- Generator: Adobe Illustrator 16.0.0, SVG Export Plug-In . SVG Version: 6.00 Build 0)  -->
<!DOCTYPE svg PUBLIC "-//W3C//DTD SVG 1.1//EN" "http://www.w3.org/Graphics/SVG/1.1/DTD/svg11.dtd">
<svg version="1.1" id="Layer_1" xmlns="http://www.w3.org/2000/svg" xmlns:xlink="http://www.w3.org/1999/xlink" x="0px" y="0px"
	 width="56.862px" height="53.595px" viewBox="0 0 56.862 53.595" enable-background="new 0 0 56.862 53.595" xml:space="preserve">
<g>
	<path fill-rule="evenodd" clip-rule="evenodd" fill="#FFFFFF" d="M30.119,23.823c0.797-1.233,1.769-2.237,2.954-3.033
		c2.219-1.49,4.691-1.929,7.311-1.737c1.723,0.125,3.396,0.454,4.93,1.285c2.131,1.156,3.425,2.985,4.166,5.25
		c0.74,2.257,0.96,4.592,0.974,6.943c0.033,5.652,0.017,11.304,0.019,16.956c0,0.579-0.002,0.581-0.566,0.581
		c-2.805,0.001-5.61,0.001-8.415,0c-0.573,0-0.575-0.002-0.576-0.571c-0.004-5.362,0.008-10.725-0.021-16.085
		c-0.006-1.187-0.169-2.368-0.633-3.484c-0.609-1.469-1.7-2.295-3.277-2.508c-0.932-0.126-1.851-0.07-2.749,0.172
		c-1.975,0.533-2.993,1.969-3.373,3.863c-0.229,1.143-0.342,2.325-0.351,3.491c-0.037,4.836-0.016,9.673-0.016,14.51
		c0,0.611-0.001,0.612-0.617,0.612c-2.777,0.001-5.555-0.008-8.333,0.009c-0.417,0.002-0.543-0.116-0.543-0.538
		c0.011-9.743,0.008-19.484,0.008-29.227c0-0.558,0.003-0.561,0.549-0.562c2.653,0,5.306,0,7.959,0c0.58,0,0.581,0.002,0.582,0.563
		c0,1.036-0.001,2.073,0.001,3.109C30.102,23.557,30.112,23.69,30.119,23.823z"/>
	<path fill-rule="evenodd" clip-rule="evenodd" fill="#FFFFFF" d="M15.235,34.956c0,4.837,0,9.674,0,14.51
		c0,0.601-0.002,0.603-0.586,0.603c-2.791,0.001-5.583-0.008-8.374,0.009c-0.417,0.002-0.541-0.115-0.54-0.537
		c0.011-9.756,0.011-19.511,0-29.267c0-0.429,0.137-0.533,0.546-0.53c2.791,0.016,5.582,0.008,8.374,0.008
		c0.577,0,0.58,0.002,0.58,0.572C15.235,25.201,15.235,30.078,15.235,34.956z"/>
	<path fill-rule="evenodd" clip-rule="evenodd" fill="#FFFFFF" d="M10.491,15.752c-3.037-0.008-5.502-2.49-5.493-5.53
		c0.009-3.047,2.475-5.483,5.53-5.488c2.796-0.004,5.48,2.197,5.497,5.483C16.042,13.41,13.5,15.725,10.491,15.752z"/>
</g>
</svg>
