<?xml version="1.0" encoding="utf-8"?>
<!-- Generator: Adobe Illustrator 16.0.0, SVG Export Plug-In . SVG Version: 6.00 Build 0)  -->
<!DOCTYPE svg PUBLIC "-//W3C//DTD SVG 1.1//EN" "http://www.w3.org/Graphics/SVG/1.1/DTD/svg11.dtd">
<svg version="1.1" id="Layer_1" xmlns="http://www.w3.org/2000/svg" xmlns:xlink="http://www.w3.org/1999/xlink" x="0px" y="0px"
	 width="56.862px" height="53.595px" viewBox="0 0 56.862 53.595" enable-background="new 0 0 56.862 53.595" xml:space="preserve">
<path fill-rule="evenodd" clip-rule="evenodd" fill="#FFFFFF" d="M21.697,45.456c-2.057,0-4.113,0-6.17,0
	c0.004-0.005,0.009-0.009,0.012-0.015c0.003-0.004,0.007-0.013,0.006-0.014c-0.058-0.05-0.13-0.039-0.198-0.047
	c-1.354-0.157-2.69-0.409-4.006-0.762c-2.709-0.724-5.248-1.835-7.622-3.325c-0.047-0.03-0.114-0.044-0.138-0.132
	c2.583,0.29,5.114,0.091,7.601-0.607s4.748-1.844,6.813-3.452c-5.42-0.207-8.412-4.207-9.115-6.822
	c1.462,0.272,2.907,0.223,4.379-0.17c-0.082-0.024-0.124-0.039-0.166-0.048c-1.427-0.312-2.725-0.907-3.865-1.815
	c-2.473-1.97-3.748-4.541-3.814-7.706C5.411,20.41,5.43,20.367,5.565,20.44c1.058,0.576,2.189,0.924,3.38,1.08
	c0.275,0.036,0.552,0.078,0.866,0.045c-0.111-0.08-0.192-0.138-0.272-0.196c-4-2.89-5.224-8.391-2.822-12.695
	C6.819,8.49,6.819,8.491,6.955,8.653c3.502,4.186,7.839,7.138,13.039,8.813c2.23,0.718,4.519,1.129,6.857,1.268
	c0.147,0.008,0.19-0.004,0.154-0.174c-0.257-1.202-0.298-2.416-0.087-3.627c0.526-3.024,2.125-5.322,4.746-6.903
	c1.157-0.699,2.424-1.108,3.77-1.264c0.04-0.005,0.132,0.041,0.118-0.069c0.706,0,1.413,0,2.119,0
	c-0.008,0.008-0.016,0.018-0.022,0.026c-0.001,0.002,0.008,0.012,0.013,0.014c0.041,0.011,0.082,0.026,0.125,0.031
	c2.283,0.29,4.23,1.262,5.847,2.896c0.088,0.088,0.16,0.127,0.292,0.099c1.798-0.376,3.513-0.984,5.139-1.839
	c0.297-0.156,0.591-0.317,0.924-0.498c-0.789,2.325-2.207,4.094-4.27,5.395c0.074,0,0.106,0.003,0.136,0
	c1.813-0.244,3.566-0.709,5.249-1.435c0.059-0.025,0.117-0.086,0.188-0.024v0c-0.066,0.022-0.084,0.089-0.119,0.139
	c-1.257,1.822-2.767,3.4-4.55,4.713c-0.163,0.12-0.214,0.239-0.205,0.436c0.101,2.184-0.098,4.346-0.545,6.484
	c-0.88,4.216-2.592,8.065-5.161,11.526c-2.103,2.833-4.651,5.183-7.671,7.012c-2.526,1.529-5.241,2.588-8.125,3.219
	c-1.01,0.221-2.029,0.385-3.058,0.494C21.802,45.391,21.712,45.35,21.697,45.456z"/>
</svg>
