<?xml version="1.0" encoding="utf-8"?>
<!-- Generator: Adobe Illustrator 22.0.0, SVG Export Plug-In . SVG Version: 6.00 Build 0)  -->
<svg version="1.1" id="Layer_1" xmlns="http://www.w3.org/2000/svg" xmlns:xlink="http://www.w3.org/1999/xlink" x="0px" y="0px"
	 viewBox="0 0 43.5 39.9" style="enable-background:new 0 0 43.5 39.9;" xml:space="preserve">
<style type="text/css">
	.st0{fill:#989898;}
</style>
<g>
	<path class="st0" d="M42.7,27.1c-2-3.1-7.7-5.7-7.8-5.8c-1.4-0.6-2.8-0.7-4-0.3c-0.9,0.4-1.7,1-2.2,1.9c-0.7,0.9-1.2,1.6-1.3,1.8
		c-0.9,0.7-1.4,0.7-2.3-0.1l-8.9-7.4c-0.9-0.8-1-1.2-0.5-2.3c0.2-0.2,0.8-0.9,1.6-1.6c0.8-0.6,1.3-1.5,1.5-2.5
		c0.2-1.3-0.1-2.6-1-3.9c-0.9-1.2-4-5.4-7-6.6c-2.1-0.9-4.5-0.3-6,1.5l-1.6,2c-2.7,3.3-3.7,6.8-2.8,10.5c0.8,3.5,3.4,7,7.5,10.5
		l11.4,9.5c3.8,3.1,7.3,5,10.6,5.4c0.6,0.1,1.1,0.1,1.7,0.1c0.3,0,0.7,0,1,0c3.1-0.3,5.8-1.8,8.2-4.6l1.6-2
		C43.8,31.5,43.9,29,42.7,27.1z M12.5,11.4c-0.4-1.1-1.5-1.8-2.7-1.6c-1.3,0.3-2.1,1.5-1.9,2.8c1.1,5.6,5.8,8.8,5.9,8.9
		c0,0,0.1,0,0.1,0.1l8,6.7c0.1,0.1,0.2,0.2,0.2,0.2c0.4,0.3,4.2,3.3,9.6,3.4l0.1,0l0,0l0,0l0.1,0c1.2-0.1,2.2-1.1,2.2-2.3
		c0-0.6-0.2-1.2-0.7-1.7c-0.4-0.5-1-0.7-1.7-0.7c-0.1,0-0.2,0-0.3,0c0.3-0.4,0.7-1,1.1-1.6c0,0,0.1,0,0.1,0.1c2.2,1.1,5.1,2.9,5.8,4
		c0.1,0.2,0.1,0.4,0,0.5l-1.6,2c-1.5,1.8-3.1,2.7-4.9,2.9c-0.4,0-0.8,0-1.2,0c-2.5-0.2-5.4-1.7-8.7-4.4l-11.4-9.5
		c-3.3-2.7-5.2-5.3-5.9-7.8C4.4,11.1,5,9,6.8,6.9l1.6-2c0.1-0.1,0.2-0.1,0.3-0.2c0,0,0,0,0,0c0.1,0,0.1,0,0.2,0c1.5,0.6,4,3.6,5,5
		c0,0.1,0.1,0.1,0.1,0.1C13.3,10.6,12.9,11.1,12.5,11.4z"/>
</g>
</svg>
