<?xml version="1.0" encoding="utf-8"?>
<!-- Generator: Adobe Illustrator 22.0.0, SVG Export Plug-In . SVG Version: 6.00 Build 0)  -->
<svg version="1.1" id="Layer_1" xmlns="http://www.w3.org/2000/svg" xmlns:xlink="http://www.w3.org/1999/xlink" x="0px" y="0px"
	 viewBox="0 0 40.5 26.9" style="enable-background:new 0 0 40.5 26.9;" xml:space="preserve">
<style type="text/css">
	.st0{fill:#989898;}
</style>
<g>
	<g>
		<path class="st0" d="M35,0H5.4C2.4,0,0,2.4,0,5.4v16c0,3,2.4,5.4,5.4,5.4H35c3,0,5.4-2.4,5.4-5.4v-16C40.5,2.4,38,0,35,0z
			 M21.4,16.9L21.4,16.9c-0.3,0.3-0.7,0.4-1.2,0.4c-0.4,0-0.8-0.1-1.2-0.4L14,13l-1-0.8L3.5,5.2c0.1-1,0.9-1.7,1.9-1.7H35
			c1,0,1.8,0.7,1.9,1.7L21.4,16.9z M12.6,14.9l5.1,3.8c0.7,0.5,1.6,0.8,2.5,0.8c0.9,0,1.8-0.3,2.5-0.8l5.1-3.8l9.1,6.8
			c-0.1,1-0.9,1.7-1.9,1.7H5.4c-1,0-1.8-0.7-1.9-1.7L12.6,14.9z M3.5,18.9V8l7.2,5.4L3.5,18.9z M37,8v10.9l-7.3-5.4L37,8z"/>
	</g>
</g>
</svg>
