<?xml version="1.0" encoding="utf-8"?>
<!-- Generator: Adobe Illustrator 22.0.0, SVG Export Plug-In . SVG Version: 6.00 Build 0)  -->
<svg version="1.1" id="Layer_1" xmlns="http://www.w3.org/2000/svg" xmlns:xlink="http://www.w3.org/1999/xlink" x="0px" y="0px"
	 viewBox="0 0 66.4 53.1" style="enable-background:new 0 0 66.4 53.1;" xml:space="preserve">
<style type="text/css">
	.st0{fill:#989898;}
</style>
<g>
	<g>
		<path id="XMLID_6_" class="st0" d="M328.9,21.6c-0.6,0-1.2,0-1.8,0c0-0.1,0-0.2,0-0.4c0-0.5,0-0.9,0-1.3c0-2.3,0-4.7,0-7
			c0-0.4-0.4-1.1-0.6-1.1c-2.1-0.1-4.3-0.1-6.5-0.1c0,2.8,0,5.5,0,8.2c0,0.5,0,1.1,0,1.6c-3.3,0-6.4,0-9.8,0c0,0.7,0,1.2,0,1.7
			c0.1,1.8,0.2,3.5,0.2,5.3c1.7,0.1,3.5,0.1,5.2,0.2c1.4,0,2.9,0,4.5,0c0,3.4,0,6.5,0,9.7c2.4,0,4.6,0,7.1,0c0-3.2,0-6.3,0-9.7
			c3.3,0,6.5,0,9.7,0c0-1.9,0-3.6,0-5.4c0-0.6,0-1.2,0-1.8C334.1,21.6,331.5,21.6,328.9,21.6z"/>
		<path id="XMLID_5_" class="st0" d="M301.1,20.8c-6.1,0.1-12.2,0-18.3,0c-1.7,0-3.5,0-5.2,0c-0.3,0-0.9,0.4-0.9,0.6
			c-0.1,3.5,0,7,0,10.8c5,0,9.9,0,15,0c-0.2,0.7-0.3,1.3-0.5,1.8c-2.3,6.8-9.3,10.2-16.9,8.9c-9.4-1.5-15.2-10.2-13.5-19.6
			c0.2-1.3,0.7-2.6,1.2-3.8c3.1-6.8,10.8-10.9,18.3-9.3c2.7,0.6,5,1.9,7,3.7c2.7-2.7,5.4-5.4,8.2-8.3c-0.2-0.1-0.4-0.3-0.7-0.5
			c-6.6-5.6-14.2-7.6-22.7-6.2c-12.2,2-21,11.6-23,22.9c-0.8,4.8-0.4,9.9,1.5,14.8c4.7,11.9,16.7,19.2,29.5,17.8
			c6.3-0.7,11.9-3,16.2-7.6c6.4-6.9,8.1-15.2,7.1-24.3C303.1,21,302.5,20.7,301.1,20.8z"/>
	</g>
</g>
<g>
	<g>
		<g>
			<polygon id="XMLID_4_" class="st0" points="129.7,27.2 129.7,59.7 145.2,59.7 145.2,24.6 145.2,15.5 129.7,15.5 			"/>
			<path id="XMLID_3_" class="st0" d="M137.5-6.6c-4.3,0-7.7,3.5-7.7,7.7c0,4.3,3.5,7.7,7.7,7.7s7.7-3.5,7.7-7.7
				C145.2-3.2,141.8-6.6,137.5-6.6z"/>
			<path id="XMLID_2_" class="st0" d="M195.8,29.1c-1-8.3-4.9-13.6-16.2-13.6c-6.7,0-11.2,2.5-13,6h-0.2v-6h-12.3V24v35.7H167V37.8
				c0-5.8,1.1-11.4,8.2-11.4c7,0,7.6,6.6,7.6,11.8v21.6h13.3V35.4h0C196.1,33.1,196,31,195.8,29.1z"/>
		</g>
	</g>
</g>
<g>
	<g>
		<path id="XMLID_1_" class="st0" d="M66.4,6.3c-2.4,1.1-5.1,1.8-7.8,2.1c2.8-1.7,5-4.3,6-7.4c-2.6,1.5-5.5,2.7-8.6,3.3
			c-2.5-2.6-6-4.2-9.9-4.2c-7.5,0-13.6,6-13.6,13.4c0,1.1,0.1,2.1,0.3,3.1c-11.3-0.6-21.3-5.9-28.1-14c-1.2,2-1.8,4.3-1.8,6.7
			c0,4.6,2.4,8.7,6.1,11.2c-2.2-0.1-4.3-0.7-6.2-1.7c0,0.1,0,0.1,0,0.2c0,1.7,0.3,3.4,0.9,4.9c1.7,4.2,5.4,7.4,10,8.3
			c-1.1,0.3-2.3,0.5-3.6,0.5c-0.9,0-1.7-0.1-2.6-0.2c1.7,5.3,6.8,9.2,12.7,9.3c-4.7,3.6-10.5,5.7-16.9,5.7c-1.1,0-2.2-0.1-3.3-0.2
			c6,3.8,13.2,6,20.9,6c21.3,0,34.4-14.7,37.8-30c0.6-2.7,0.9-5.4,0.9-8.1c0-0.6,0-1.2,0-1.7C62.2,11.3,64.5,9,66.4,6.3z"/>
	</g>
</g>
</svg>
