<?xml version="1.0" encoding="utf-8"?>
<!-- Generator: Adobe Illustrator 22.0.0, SVG Export Plug-In . SVG Version: 6.00 Build 0)  -->
<svg version="1.1" id="Layer_1" xmlns="http://www.w3.org/2000/svg" xmlns:xlink="http://www.w3.org/1999/xlink" x="0px" y="0px"
	 viewBox="0 0 40 43.7" style="enable-background:new 0 0 40 43.7;" xml:space="preserve">
<style type="text/css">
	.st0{fill:#FFFFFF;}
</style>
<g>
	<g>
		<path class="st0" d="M17.1,28.7c0-3.6,0-7.1,0-10.7c0-1.1,0.1-2.2,0.2-3.3c0.1-0.7,0.3-1.4,0.5-2c0.7-2.3,1.8-4.3,3.2-6.1
			c1.8-2.2,3.9-3.8,6.4-5C29.8,0.5,32.3,0,34.9,0c0.2,0,0.3,0,0.5,0.1c0.5,0.1,0.8,0.3,0.8,0.9c0.1,0.8,0.1,1.5,0.1,2.3
			c0,1.5,0,2.9,0,4.4c0,0.2,0,0.4-0.1,0.6C36.2,8.7,36,8.9,35.5,9c-0.4,0.1-0.9,0.2-1.3,0.3c-3.4,0.6-5.8,2.5-7.3,5.7
			c-0.6,1.3-0.8,2.7-0.8,4.1c0,0.4,0,0.8,0,1.1c0,0.3,0.1,0.4,0.4,0.4c1.5,0,3.1,0,4.6,0c1.8,0,3.5,0,5.3,0c0.3,0,0.7,0,1,0
			c1.2,0.1,2.4,0.8,2.5,2.6c0,1.8,0,3.7,0,5.5c0,3.5,0,7.1,0,10.6c0,0.6,0,1.1,0,1.7c-0.1,1.5-1,2.5-2.6,2.5c-1.2,0-2.4,0-3.7,0
			c-3.5,0-7.1,0-10.6,0c-1.1,0-2.2,0-3.3,0c-0.7,0-1.3-0.2-1.8-0.6c-0.6-0.5-0.8-1.1-0.8-1.8c0-2.2,0-4.4,0-6.7
			C17.1,32.6,17.1,30.7,17.1,28.7C17.1,28.7,17.1,28.7,17.1,28.7z"/>
		<path class="st0" d="M0,33.4c0-2.5,0-5.1,0-7.6c0-1.3,0.2-2.5,0.6-3.7c0.4-1.3,1-2.4,1.8-3.5c0.9-1.2,1.9-2.2,3.2-3
			C6.8,14.9,8,14.4,9.3,14c0.9-0.2,1.9-0.4,2.9-0.4c0.8,0,1.1,0.2,1.1,1.1c0,1.4,0,2.9,0,4.3c0,0.6-0.2,0.8-0.8,0.9
			c-0.8,0.1-1.6,0.3-2.4,0.6c-1.9,1-3.1,2.5-3.6,4.6c-0.2,0.8-0.2,1.7-0.2,2.5c0,0.2,0.1,0.2,0.2,0.2c0.8,0,1.6,0,2.4,0
			c1.6,0,3.1,0,4.7,0c0.4,0,0.8,0,1.2,0.3c0.6,0.3,0.9,0.9,0.9,1.6c0,1.2,0,2.4,0,3.7c0,2.1,0,4.2,0,6.3c0,0.7,0,1.5,0,2.2
			c0,1.2-0.7,1.8-1.8,1.8c-1.3,0-2.5,0-3.8,0c-2.5,0-5,0-7.5,0c-0.4,0-0.7,0-1.1,0C0.8,43.6,0.1,43.1,0,42c0-0.8,0-1.6,0-2.5
			C0,37.5,0,35.4,0,33.4z"/>
	</g>
</g>
</svg>
