<?xml version="1.0" encoding="utf-8"?>
<!-- Generator: Adobe Illustrator 22.0.0, SVG Export Plug-In . SVG Version: 6.00 Build 0)  -->
<svg version="1.1" id="Layer_1" xmlns="http://www.w3.org/2000/svg" xmlns:xlink="http://www.w3.org/1999/xlink" x="0px" y="0px"
	 viewBox="0 0 43 46.9" style="enable-background:new 0 0 43 46.9;" xml:space="preserve">
<style type="text/css">
	.st0{fill:#FFFFFF;}
</style>
<g>
	<g>
		<path class="st0" d="M24.6,16c0,3.8,0,7.7,0,11.5c0,1.2-0.1,2.3-0.2,3.5c-0.1,0.7-0.3,1.5-0.5,2.2c-0.7,2.4-1.9,4.6-3.5,6.6
			c-1.9,2.3-4.2,4.1-6.9,5.4c-2.5,1.2-5.2,1.8-8,1.8c-0.2,0-0.4,0-0.6-0.1c-0.6-0.1-0.9-0.4-0.9-1c-0.1-0.8-0.1-1.7-0.1-2.5
			c0-1.6,0-3.2,0-4.7c0-0.2,0-0.4,0.1-0.6c0.1-0.5,0.3-0.8,0.8-0.9c0.5-0.1,0.9-0.2,1.4-0.3c3.7-0.6,6.3-2.7,7.8-6.1
			c0.6-1.4,0.8-2.9,0.8-4.4c0-0.4,0-0.8,0-1.2c0-0.3-0.1-0.4-0.4-0.4c-1.7,0-3.3,0-5,0c-1.9,0-3.8,0-5.7,0c-0.4,0-0.7,0-1.1,0
			C1.4,24.7,0,23.9,0,22c0-2,0-4,0-6c0-3.8,0-7.6,0-11.4C0,4,0,3.4,0,2.8c0.1-1.6,1.1-2.6,2.8-2.7c1.3,0,2.6,0,3.9,0
			c3.8,0,7.6,0,11.4,0c1.2,0,2.4,0,3.6,0c0.7,0,1.4,0.2,1.9,0.7c0.6,0.5,0.9,1.2,0.9,1.9c0,2.4,0,4.8,0,7.2
			C24.6,11.9,24.6,14,24.6,16C24.6,16,24.6,16,24.6,16z"/>
		<path class="st0" d="M43,11c0,2.7,0,5.5,0,8.2c0,1.4-0.3,2.7-0.7,4c-0.4,1.3-1.1,2.6-1.9,3.7c-1,1.3-2.1,2.3-3.4,3.2
			c-1.2,0.8-2.6,1.4-4,1.8c-1,0.2-2,0.4-3.1,0.4c-0.9,0-1.1-0.3-1.2-1.1c0-1.5,0-3.1,0-4.6c0-0.7,0.2-0.9,0.9-1
			c0.9-0.1,1.7-0.3,2.5-0.7c2.1-1,3.4-2.7,3.9-4.9c0.2-0.9,0.2-1.8,0.2-2.7c0-0.2-0.1-0.2-0.2-0.2c-0.9,0-1.7,0-2.6,0
			c-1.7,0-3.4,0-5,0c-0.5,0-0.9-0.1-1.3-0.3c-0.7-0.4-0.9-1-1-1.7c0-1.3,0-2.6,0-3.9c0-2.3,0-4.5,0-6.8c0-0.8,0-1.6,0-2.4
			c0-1.3,0.7-2,2-2c1.4,0,2.7,0,4.1,0c2.7,0,5.3,0,8,0c0.4,0,0.8,0,1.1,0c0.9,0.1,1.7,0.6,1.7,1.8c0,0.9,0,1.8,0,2.7
			C43,6.6,43,8.8,43,11z"/>
	</g>
</g>
</svg>
