<?xml version="1.0" encoding="utf-8"?>
<!-- Generator: Adobe Illustrator 22.0.0, SVG Export Plug-In . SVG Version: 6.00 Build 0)  -->
<svg version="1.1" id="Layer_1" xmlns="http://www.w3.org/2000/svg" xmlns:xlink="http://www.w3.org/1999/xlink" x="0px" y="0px"
	 viewBox="0 0 88.1 56.1" style="enable-background:new 0 0 88.1 56.1;" xml:space="preserve">
<style type="text/css">
	.st0{fill:#989898;}
</style>
<g>
	<g>
		<path id="XMLID_6_" class="st0" d="M80.3,23.1c-0.6,0-1.2,0-1.8,0c0-0.1,0-0.2,0-0.4c0-0.5,0-0.9,0-1.3c0-2.3,0-4.7,0-7
			c0-0.4-0.4-1.1-0.6-1.1c-2.1-0.1-4.3-0.1-6.5-0.1c0,2.8,0,5.5,0,8.2c0,0.5,0,1.1,0,1.6c-3.3,0-6.4,0-9.8,0c0,0.7,0,1.2,0,1.7
			c0.1,1.8,0.2,3.5,0.2,5.3c1.7,0.1,3.5,0.1,5.2,0.2c1.4,0,2.9,0,4.5,0c0,3.4,0,6.5,0,9.7c2.4,0,4.6,0,7.1,0c0-3.2,0-6.3,0-9.7
			c3.3,0,6.5,0,9.7,0c0-1.9,0-3.6,0-5.4c0-0.6,0-1.2,0-1.8C85.5,23.1,83,23.1,80.3,23.1z"/>
		<path id="XMLID_5_" class="st0" d="M52.5,22.3c-6.1,0.1-12.2,0-18.3,0c-1.7,0-3.5,0-5.2,0c-0.3,0-0.9,0.4-0.9,0.6
			c-0.1,3.5,0,7,0,10.8c5,0,9.9,0,15,0c-0.2,0.7-0.3,1.3-0.5,1.8c-2.3,6.8-9.3,10.2-16.9,8.9c-9.4-1.5-15.2-10.2-13.5-19.6
			c0.2-1.3,0.7-2.6,1.2-3.8c3.1-6.8,10.8-10.9,18.3-9.3c2.7,0.6,5,1.9,7,3.7c2.7-2.7,5.4-5.4,8.2-8.3c-0.2-0.1-0.4-0.3-0.7-0.5
			C39.5,1.1,31.9-1,23.4,0.4c-12.2,2-21,11.6-23,22.9c-0.8,4.8-0.4,9.9,1.5,14.8c4.7,11.9,16.7,19.2,29.5,17.8
			c6.3-0.7,11.9-3,16.2-7.6c6.4-6.9,8.1-15.2,7.1-24.3C54.5,22.5,53.9,22.3,52.5,22.3z"/>
	</g>
</g>
<g>
	<g>
		<g>
			<polygon id="XMLID_4_" class="st0" points="-118.9,28.7 -118.9,61.2 -103.4,61.2 -103.4,26.1 -103.4,17 -118.9,17 			"/>
			<path id="XMLID_3_" class="st0" d="M-111.1-5.1c-4.3,0-7.7,3.5-7.7,7.7c0,4.3,3.5,7.7,7.7,7.7c4.3,0,7.7-3.5,7.7-7.7
				C-103.4-1.7-106.8-5.1-111.1-5.1z"/>
			<path id="XMLID_2_" class="st0" d="M-52.8,30.6C-53.9,22.2-57.7,17-69,17c-6.7,0-11.2,2.5-13,6h-0.2v-6h-12.3v8.5v35.7h12.9V39.3
				c0-5.8,1.1-11.4,8.2-11.4c7,0,7.6,6.6,7.6,11.8v21.6h13.3V36.9h0C-52.5,34.7-52.6,32.5-52.8,30.6z"/>
		</g>
	</g>
</g>
<g>
	<g>
		<path id="XMLID_1_" class="st0" d="M-182.2,7.8c-2.4,1.1-5.1,1.8-7.8,2.1c2.8-1.7,5-4.3,6-7.4c-2.6,1.5-5.5,2.7-8.6,3.3
			c-2.5-2.6-6-4.2-9.9-4.2c-7.5,0-13.6,6-13.6,13.4c0,1.1,0.1,2.1,0.3,3.1c-11.3-0.6-21.3-5.9-28.1-14c-1.2,2-1.8,4.3-1.8,6.7
			c0,4.6,2.4,8.7,6.1,11.2c-2.2-0.1-4.3-0.7-6.2-1.7c0,0.1,0,0.1,0,0.2c0,1.7,0.3,3.4,0.9,4.9c1.7,4.2,5.4,7.4,10,8.3
			c-1.1,0.3-2.3,0.5-3.6,0.5c-0.9,0-1.7-0.1-2.6-0.2c1.7,5.3,6.8,9.2,12.7,9.3c-4.7,3.6-10.5,5.7-16.9,5.7c-1.1,0-2.2-0.1-3.3-0.2
			c6,3.8,13.2,6,20.9,6c21.3,0,34.4-14.7,37.8-30c0.6-2.7,0.9-5.4,0.9-8.1c0-0.6,0-1.2,0-1.7C-186.4,12.9-184.1,10.5-182.2,7.8z"/>
	</g>
</g>
</svg>
