<?xml version="1.0" encoding="utf-8"?>
<!-- Generator: Adobe Illustrator 22.0.0, SVG Export Plug-In . SVG Version: 6.00 Build 0)  -->
<svg version="1.1" id="Layer_1" xmlns="http://www.w3.org/2000/svg" xmlns:xlink="http://www.w3.org/1999/xlink" x="0px" y="0px"
	 viewBox="0 0 46.7 39.2" style="enable-background:new 0 0 46.7 39.2;" xml:space="preserve">
<style type="text/css">
	.st0{fill:#989898;}
</style>
<g>
	<g>
		<g>
			<path class="st0" d="M45.8,22.5L23.3,0L0.9,22.5c-1.1,1.1-1.1,3,0,4.1c1.1,1.1,3,1.1,4.1,0l0.9-0.9v10.5v3h2.9h29.2h2.9v-3V25.8
				l0.9,0.9c0.6,0.6,1.3,0.9,2.1,0.9c0.7,0,1.5-0.3,2.1-0.9C47,25.5,47,23.6,45.8,22.5z M37.9,36.3H20.4V24.6h-5.8v11.7H8.8V22.8
				L23.3,8.2l14.6,14.6V36.3z"/>
			<rect x="26.3" y="24.6" class="st0" width="5.8" height="5.8"/>
		</g>
		<rect x="26.3" y="24.6" class="st0" width="5.8" height="5.8"/>
		<polygon class="st0" points="14.6,4.6 14.6,1.2 8.8,1.2 8.8,10.5 		"/>
	</g>
</g>
</svg>
