<?xml version="1.0" encoding="utf-8"?>
<!-- Generator: Adobe Illustrator 22.0.0, SVG Export Plug-In . SVG Version: 6.00 Build 0)  -->
<svg version="1.1" id="Layer_1" xmlns="http://www.w3.org/2000/svg" xmlns:xlink="http://www.w3.org/1999/xlink" x="0px" y="0px"
	 viewBox="0 0 20.8 16.8" style="enable-background:new 0 0 20.8 16.8;" xml:space="preserve">
<style type="text/css">
	.st0{fill:#FFFFFF;}
</style>
<g>
	<path class="st0" d="M20.8,5.9c0,2.5,0,4.9,0,7.4c0,0.2-0.1,0.3-0.1,0.5c-0.5,1.8-2,3-3.9,3c-4.3,0-8.5,0-12.8,0
		c-0.5,0-0.9-0.1-1.4-0.2C1,16,0,14.6,0,12.8c0-2.6,0-5.3,0-7.9c0-1.1,0.5-1.9,1.5-2.3c0.1,0,0.1-0.1,0.1-0.2
		c0.1-0.5,0.3-0.8,0.9-0.8c0.5,0,1,0,1.4,0c0.2,0,0.5,0,0.6,0.2C4.7,2,4.7,2.2,4.9,2.4c0.4,0,0.8,0,1.2,0c0.1,0,0.2,0,0.3-0.2
		c0.3-0.5,0.6-1,0.9-1.6C7.4,0.3,7.7,0.1,8.1,0c0.3,0,0.7,0,1,0c1.6,0,3.2,0,4.8,0c0.6,0,1,0.2,1.3,0.7c0.3,0.5,0.6,1,0.9,1.5
		c0.1,0.1,0.1,0.2,0.3,0.2c0.2,0,0.4,0,0.6,0c1.7,0,3.2,1.1,3.7,2.7C20.7,5.4,20.7,5.6,20.8,5.9z M5.5,8.8c0,3.1,2.5,5.6,5.6,5.7
		c3.1,0,5.7-2.5,5.7-5.6c0-3.2-2.6-5.6-5.6-5.7C8.1,3.1,5.6,5.7,5.5,8.8z M4.4,4c0-0.7-0.5-1.2-1.2-1.2C2.5,2.8,2,3.4,2,4
		c0,0.7,0.6,1.2,1.2,1.2C3.9,5.2,4.4,4.7,4.4,4z"/>
	<path class="st0" d="M15,8.8c0,2.1-1.7,3.8-3.8,3.8c-2.1,0-3.9-1.7-3.9-3.8C7.3,6.7,9.1,5,11.2,5C13.3,4.9,15,6.7,15,8.8z"/>
</g>
</svg>
